<svg width="285" height="113" viewBox="0 0 285 113" fill="none" xmlns="http://www.w3.org/2000/svg">
<g filter="url(#filter0_d_1_4)">
<mask id="path-1-outside-1_1_4" maskUnits="userSpaceOnUse" x="3" y="-1" width="278" height="107" fill="black">
<rect fill="white" x="3" y="-1" width="278" height="107"/>
<path d="M42.24 1.576C43.1787 2.17333 43.648 3.62399 43.648 5.92799C43.648 8.06133 43.3067 10.7493 42.624 13.992C42.2827 16.04 42.112 17.192 42.112 17.448C41.856 24.1893 41.4293 30.1627 40.832 35.368C39.2107 50.8987 37.3333 63.4427 35.2 73C34.0907 77.9493 33.0667 82.0027 32.128 85.16C31.2747 88.232 29.9093 91.3893 28.032 94.632C26.1547 97.8747 23.808 100.179 20.992 101.544C19.8827 102.056 18.9013 102.312 18.048 102.312C15.6587 102.312 14.08 100.605 13.312 97.192C12.544 93.6933 12.16 89.2987 12.16 84.008V80.936C12.16 80.424 12.16 79.8267 12.16 79.144C12.2453 78.4613 12.2453 77.7787 12.16 77.096C11.4773 65.6613 10.1547 53.2027 8.192 39.72C7.08267 31.528 6.22933 25.5973 5.632 21.928C5.12 18.6853 4.864 16.296 4.864 14.76C4.864 11.7733 5.67467 9.128 7.296 6.824C8.23467 5.45866 9.30133 4.26399 10.496 3.24C11.776 2.216 13.0133 1.70399 14.208 1.70399C15.232 1.70399 16.0853 2.17333 16.768 3.11199C17.3653 3.87999 17.792 4.94666 18.048 6.312C18.304 7.67733 18.5173 9.55466 18.688 11.944C18.688 13.0533 18.7733 14.2053 18.944 15.4C19.6267 19.5813 20.608 24.9147 21.888 31.4C23.5947 39.336 24.7893 45.9493 25.472 51.24C25.6427 49.192 25.8133 46.2053 25.984 42.28C26.1547 37.416 26.4107 33.192 26.752 29.608C27.0933 26.024 27.648 22.4827 28.416 18.984C28.672 17.448 29.3547 15.2293 30.464 12.328C31.6587 9.34133 33.0667 6.69599 34.688 4.392C36.3947 2.00267 38.144 0.807999 39.936 0.807999C40.704 0.807999 41.472 1.064 42.24 1.576ZM75.056 61.608L74.032 64.168L82.992 71.72L82.096 68.008C81.4987 65.6187 80.304 60.5413 78.512 52.776L75.056 61.608ZM89.648 24.232C90.8427 31.656 92.336 39.208 94.128 46.888C96.0053 54.4827 98.2667 63.2293 100.912 73.128C103.387 82.5147 105.008 88.744 105.776 91.816C105.861 92.072 105.904 92.456 105.904 92.968C105.904 95.016 104.752 96.808 102.448 98.344C100.144 99.7947 97.7547 100.52 95.28 100.52C93.232 100.52 91.6533 99.9653 90.544 98.856C88.0693 96.2107 85.4667 93.6933 82.736 91.304C80.0053 88.9147 76.4213 85.9707 71.984 82.472L67.76 79.016C64.176 86.696 61.4027 92.3707 59.44 96.04C58.8427 97.32 57.264 98.5147 54.704 99.624C52.2293 100.648 49.9253 101.16 47.792 101.16C45.4027 101.16 44.208 100.392 44.208 98.856C44.208 98.4293 44.336 97.9173 44.592 97.32C47.152 91.0053 50.1813 83.752 53.68 75.56L56.368 69.032C54.2347 66.8987 53.168 65.832 53.168 65.832C52.5707 65.2347 52.272 64.552 52.272 63.784C52.272 62.3333 53.2107 60.968 55.088 59.688C56.9653 58.3227 59.056 57.4267 61.36 57C65.456 47.1867 69.296 37.2027 72.88 27.048C73.2213 25.8533 74.288 24.8293 76.08 23.976C77.9573 23.0373 79.92 22.44 81.968 22.184C83.4187 21.7573 84.656 21.544 85.68 21.544C88.0693 21.544 89.392 22.44 89.648 24.232ZM135.261 54.952C138.589 52.3067 141.277 49.96 143.325 47.912C145.458 45.864 147.08 43.816 148.189 41.768C143.581 40.5733 136.754 38.6107 127.709 35.88L127.069 61.864C129.629 59.7307 131.122 58.4507 131.549 58.024L135.261 54.952ZM155.869 72.872C156.552 71.5067 158.002 70.3547 160.221 69.416C162.44 68.392 164.573 67.88 166.621 67.88C169.437 67.88 170.845 68.776 170.845 70.568C170.845 71.08 170.717 71.6773 170.461 72.36C166.962 80.552 164.317 88.488 162.525 96.168C162.098 97.8747 160.861 99.4533 158.813 100.904C157.96 102.013 156.637 102.952 154.845 103.72C153.138 104.488 151.432 104.872 149.725 104.872C148.274 104.872 147.08 104.573 146.141 103.976C145.288 103.379 144.818 102.44 144.733 101.16C144.392 95.6133 142.557 90.536 139.229 85.928C135.986 81.32 131.805 78.3333 126.685 76.968L126.045 95.528C125.96 97.1493 124.594 98.6427 121.949 100.008C119.389 101.373 116.914 102.056 114.525 102.056C113.245 102.056 112.221 101.843 111.453 101.416C110.685 100.904 110.301 100.136 110.301 99.112L110.685 81.448C109.576 80.68 109.021 79.784 109.021 78.76C109.021 77.5653 109.661 76.4133 110.941 75.304C111.368 59.7733 111.88 44.2853 112.477 28.84C112.562 27.048 113.757 25.512 116.061 24.232C118.45 22.8667 120.84 22.184 123.229 22.184C125.021 22.184 126.301 22.6107 127.069 23.464C136.37 26.024 146.013 28.84 155.997 31.912C157.533 31.5707 158.6 31.4 159.197 31.4C160.648 31.4 161.757 31.7413 162.525 32.424C163.378 33.0213 163.805 33.96 163.805 35.24C163.805 38.7387 162.653 41.9813 160.349 44.968C158.045 47.8693 154.845 51.112 150.749 54.696L148.189 57C144.093 61.0107 140.125 64.552 136.285 67.624C143.282 69.5867 148.914 73.4693 153.181 79.272C153.522 78.4187 154.418 76.2853 155.869 72.872ZM211.844 31.656C211.929 29.9493 213.124 28.456 215.428 27.176C217.817 25.8107 220.207 25.128 222.596 25.128C223.961 25.128 225.071 25.4267 225.924 26.024C226.777 26.536 227.161 27.3893 227.076 28.584C226.905 31.8267 226.82 34.4293 226.82 36.392C226.393 47.4853 225.625 56.9147 224.516 64.68C223.492 72.4453 221.145 79.7413 217.476 86.568C213.807 93.3947 208.345 97.8747 201.092 100.008C198.617 100.691 196.271 101.032 194.052 101.032C188.591 101.032 183.769 99.4107 179.588 96.168C175.492 92.9253 173.145 88.5307 172.548 82.984C172.377 80.7653 172.292 79.1013 172.292 77.992C172.292 72.104 173.188 66.088 174.98 59.944C176.772 53.8 179.375 46.376 182.788 37.672C183.812 35.368 184.964 32.424 186.244 28.84C186.756 27.3893 188.036 26.1947 190.084 25.256C192.217 24.232 194.308 23.72 196.356 23.72C197.721 23.72 198.831 24.0187 199.684 24.616C200.537 25.128 200.964 25.896 200.964 26.92C200.964 27.2613 200.879 27.7733 200.708 28.456C199.001 33.4053 197.679 37.1173 196.74 39.592C194.265 46.504 192.345 52.3067 190.98 57C189.615 61.608 188.676 66.344 188.164 71.208C187.993 73.256 187.908 74.8773 187.908 76.072C187.908 81.1067 189.145 84.7333 191.62 86.952C192.388 87.72 193.412 88.4453 194.692 89.128C195.972 89.7253 197.167 90.0667 198.276 90.152L199.3 90.408C199.385 90.408 199.556 90.28 199.812 90.024C201.945 88.6587 203.652 86.3547 204.932 83.112C206.297 79.784 207.193 76.84 207.62 74.28C208.047 71.72 208.644 67.6667 209.412 62.12C210.009 57.5973 210.479 52.648 210.82 47.272C211.247 41.896 211.588 36.6907 211.844 31.656ZM279.703 27.432C277.655 42.9627 276.631 57.5973 276.631 71.336C276.631 77.992 276.887 84.7333 277.399 91.56C277.57 92.072 277.655 92.4987 277.655 92.84C277.655 93.096 277.57 93.48 277.399 93.992C277.399 94.0773 277.356 94.12 277.271 94.12V94.376C276.759 95.8267 275.564 97.1067 273.687 98.216C271.81 99.24 269.804 99.8373 267.671 100.008C264.258 100.349 262.21 99.4533 261.527 97.32C258.54 89.2987 253.804 78.2053 247.319 64.04L245.783 60.456C245.1 71.1227 244.674 82.5147 244.503 94.632C244.503 96.424 243.308 98.0453 240.919 99.496C238.53 100.861 236.098 101.544 233.623 101.544C232.087 101.544 230.85 101.245 229.911 100.648C228.972 100.051 228.546 99.0693 228.631 97.704C229.143 74.4933 230.807 52.52 233.623 31.784L233.751 31.272C233.58 29.3947 234.732 27.688 237.207 26.152C239.682 24.616 242.156 23.848 244.631 23.848C247.191 23.848 248.77 24.7013 249.367 26.408C252.098 33.832 256.151 43.3893 261.527 55.08C262.039 47.0587 262.935 38.9093 264.215 30.632C264.471 28.9253 265.836 27.432 268.311 26.152C270.786 24.7867 273.218 24.104 275.607 24.104C278.679 24.104 280.044 25.2133 279.703 27.432Z"/>
</mask>
<path d="M42.24 1.576C43.1787 2.17333 43.648 3.62399 43.648 5.92799C43.648 8.06133 43.3067 10.7493 42.624 13.992C42.2827 16.04 42.112 17.192 42.112 17.448C41.856 24.1893 41.4293 30.1627 40.832 35.368C39.2107 50.8987 37.3333 63.4427 35.2 73C34.0907 77.9493 33.0667 82.0027 32.128 85.16C31.2747 88.232 29.9093 91.3893 28.032 94.632C26.1547 97.8747 23.808 100.179 20.992 101.544C19.8827 102.056 18.9013 102.312 18.048 102.312C15.6587 102.312 14.08 100.605 13.312 97.192C12.544 93.6933 12.16 89.2987 12.16 84.008V80.936C12.16 80.424 12.16 79.8267 12.16 79.144C12.2453 78.4613 12.2453 77.7787 12.16 77.096C11.4773 65.6613 10.1547 53.2027 8.192 39.72C7.08267 31.528 6.22933 25.5973 5.632 21.928C5.12 18.6853 4.864 16.296 4.864 14.76C4.864 11.7733 5.67467 9.128 7.296 6.824C8.23467 5.45866 9.30133 4.26399 10.496 3.24C11.776 2.216 13.0133 1.70399 14.208 1.70399C15.232 1.70399 16.0853 2.17333 16.768 3.11199C17.3653 3.87999 17.792 4.94666 18.048 6.312C18.304 7.67733 18.5173 9.55466 18.688 11.944C18.688 13.0533 18.7733 14.2053 18.944 15.4C19.6267 19.5813 20.608 24.9147 21.888 31.4C23.5947 39.336 24.7893 45.9493 25.472 51.24C25.6427 49.192 25.8133 46.2053 25.984 42.28C26.1547 37.416 26.4107 33.192 26.752 29.608C27.0933 26.024 27.648 22.4827 28.416 18.984C28.672 17.448 29.3547 15.2293 30.464 12.328C31.6587 9.34133 33.0667 6.69599 34.688 4.392C36.3947 2.00267 38.144 0.807999 39.936 0.807999C40.704 0.807999 41.472 1.064 42.24 1.576ZM75.056 61.608L74.032 64.168L82.992 71.72L82.096 68.008C81.4987 65.6187 80.304 60.5413 78.512 52.776L75.056 61.608ZM89.648 24.232C90.8427 31.656 92.336 39.208 94.128 46.888C96.0053 54.4827 98.2667 63.2293 100.912 73.128C103.387 82.5147 105.008 88.744 105.776 91.816C105.861 92.072 105.904 92.456 105.904 92.968C105.904 95.016 104.752 96.808 102.448 98.344C100.144 99.7947 97.7547 100.52 95.28 100.52C93.232 100.52 91.6533 99.9653 90.544 98.856C88.0693 96.2107 85.4667 93.6933 82.736 91.304C80.0053 88.9147 76.4213 85.9707 71.984 82.472L67.76 79.016C64.176 86.696 61.4027 92.3707 59.44 96.04C58.8427 97.32 57.264 98.5147 54.704 99.624C52.2293 100.648 49.9253 101.16 47.792 101.16C45.4027 101.16 44.208 100.392 44.208 98.856C44.208 98.4293 44.336 97.9173 44.592 97.32C47.152 91.0053 50.1813 83.752 53.68 75.56L56.368 69.032C54.2347 66.8987 53.168 65.832 53.168 65.832C52.5707 65.2347 52.272 64.552 52.272 63.784C52.272 62.3333 53.2107 60.968 55.088 59.688C56.9653 58.3227 59.056 57.4267 61.36 57C65.456 47.1867 69.296 37.2027 72.88 27.048C73.2213 25.8533 74.288 24.8293 76.08 23.976C77.9573 23.0373 79.92 22.44 81.968 22.184C83.4187 21.7573 84.656 21.544 85.68 21.544C88.0693 21.544 89.392 22.44 89.648 24.232ZM135.261 54.952C138.589 52.3067 141.277 49.96 143.325 47.912C145.458 45.864 147.08 43.816 148.189 41.768C143.581 40.5733 136.754 38.6107 127.709 35.88L127.069 61.864C129.629 59.7307 131.122 58.4507 131.549 58.024L135.261 54.952ZM155.869 72.872C156.552 71.5067 158.002 70.3547 160.221 69.416C162.44 68.392 164.573 67.88 166.621 67.88C169.437 67.88 170.845 68.776 170.845 70.568C170.845 71.08 170.717 71.6773 170.461 72.36C166.962 80.552 164.317 88.488 162.525 96.168C162.098 97.8747 160.861 99.4533 158.813 100.904C157.96 102.013 156.637 102.952 154.845 103.72C153.138 104.488 151.432 104.872 149.725 104.872C148.274 104.872 147.08 104.573 146.141 103.976C145.288 103.379 144.818 102.44 144.733 101.16C144.392 95.6133 142.557 90.536 139.229 85.928C135.986 81.32 131.805 78.3333 126.685 76.968L126.045 95.528C125.96 97.1493 124.594 98.6427 121.949 100.008C119.389 101.373 116.914 102.056 114.525 102.056C113.245 102.056 112.221 101.843 111.453 101.416C110.685 100.904 110.301 100.136 110.301 99.112L110.685 81.448C109.576 80.68 109.021 79.784 109.021 78.76C109.021 77.5653 109.661 76.4133 110.941 75.304C111.368 59.7733 111.88 44.2853 112.477 28.84C112.562 27.048 113.757 25.512 116.061 24.232C118.45 22.8667 120.84 22.184 123.229 22.184C125.021 22.184 126.301 22.6107 127.069 23.464C136.37 26.024 146.013 28.84 155.997 31.912C157.533 31.5707 158.6 31.4 159.197 31.4C160.648 31.4 161.757 31.7413 162.525 32.424C163.378 33.0213 163.805 33.96 163.805 35.24C163.805 38.7387 162.653 41.9813 160.349 44.968C158.045 47.8693 154.845 51.112 150.749 54.696L148.189 57C144.093 61.0107 140.125 64.552 136.285 67.624C143.282 69.5867 148.914 73.4693 153.181 79.272C153.522 78.4187 154.418 76.2853 155.869 72.872ZM211.844 31.656C211.929 29.9493 213.124 28.456 215.428 27.176C217.817 25.8107 220.207 25.128 222.596 25.128C223.961 25.128 225.071 25.4267 225.924 26.024C226.777 26.536 227.161 27.3893 227.076 28.584C226.905 31.8267 226.82 34.4293 226.82 36.392C226.393 47.4853 225.625 56.9147 224.516 64.68C223.492 72.4453 221.145 79.7413 217.476 86.568C213.807 93.3947 208.345 97.8747 201.092 100.008C198.617 100.691 196.271 101.032 194.052 101.032C188.591 101.032 183.769 99.4107 179.588 96.168C175.492 92.9253 173.145 88.5307 172.548 82.984C172.377 80.7653 172.292 79.1013 172.292 77.992C172.292 72.104 173.188 66.088 174.98 59.944C176.772 53.8 179.375 46.376 182.788 37.672C183.812 35.368 184.964 32.424 186.244 28.84C186.756 27.3893 188.036 26.1947 190.084 25.256C192.217 24.232 194.308 23.72 196.356 23.72C197.721 23.72 198.831 24.0187 199.684 24.616C200.537 25.128 200.964 25.896 200.964 26.92C200.964 27.2613 200.879 27.7733 200.708 28.456C199.001 33.4053 197.679 37.1173 196.74 39.592C194.265 46.504 192.345 52.3067 190.98 57C189.615 61.608 188.676 66.344 188.164 71.208C187.993 73.256 187.908 74.8773 187.908 76.072C187.908 81.1067 189.145 84.7333 191.62 86.952C192.388 87.72 193.412 88.4453 194.692 89.128C195.972 89.7253 197.167 90.0667 198.276 90.152L199.3 90.408C199.385 90.408 199.556 90.28 199.812 90.024C201.945 88.6587 203.652 86.3547 204.932 83.112C206.297 79.784 207.193 76.84 207.62 74.28C208.047 71.72 208.644 67.6667 209.412 62.12C210.009 57.5973 210.479 52.648 210.82 47.272C211.247 41.896 211.588 36.6907 211.844 31.656ZM279.703 27.432C277.655 42.9627 276.631 57.5973 276.631 71.336C276.631 77.992 276.887 84.7333 277.399 91.56C277.57 92.072 277.655 92.4987 277.655 92.84C277.655 93.096 277.57 93.48 277.399 93.992C277.399 94.0773 277.356 94.12 277.271 94.12V94.376C276.759 95.8267 275.564 97.1067 273.687 98.216C271.81 99.24 269.804 99.8373 267.671 100.008C264.258 100.349 262.21 99.4533 261.527 97.32C258.54 89.2987 253.804 78.2053 247.319 64.04L245.783 60.456C245.1 71.1227 244.674 82.5147 244.503 94.632C244.503 96.424 243.308 98.0453 240.919 99.496C238.53 100.861 236.098 101.544 233.623 101.544C232.087 101.544 230.85 101.245 229.911 100.648C228.972 100.051 228.546 99.0693 228.631 97.704C229.143 74.4933 230.807 52.52 233.623 31.784L233.751 31.272C233.58 29.3947 234.732 27.688 237.207 26.152C239.682 24.616 242.156 23.848 244.631 23.848C247.191 23.848 248.77 24.7013 249.367 26.408C252.098 33.832 256.151 43.3893 261.527 55.08C262.039 47.0587 262.935 38.9093 264.215 30.632C264.471 28.9253 265.836 27.432 268.311 26.152C270.786 24.7867 273.218 24.104 275.607 24.104C278.679 24.104 280.044 25.2133 279.703 27.432Z" fill="black"/>
<path d="M42.24 1.576L41.6853 2.40805L41.6942 2.41395L41.7031 2.41966L42.24 1.576ZM42.624 13.992L41.6455 13.786L41.6411 13.8067L41.6376 13.8276L42.624 13.992ZM42.112 17.448L43.1113 17.4859L43.112 17.467V17.448H42.112ZM40.832 35.368L39.8385 35.254L39.8374 35.2642L40.832 35.368ZM35.2 73L36.1758 73.2187L36.176 73.2179L35.2 73ZM32.128 85.16L31.1695 84.875L31.1669 84.8837L31.1645 84.8924L32.128 85.16ZM28.032 94.632L28.8974 95.133L28.8974 95.133L28.032 94.632ZM20.992 101.544L21.4111 102.452L21.4197 102.448L21.4283 102.444L20.992 101.544ZM13.312 97.192L12.3352 97.4064L12.3364 97.4115L13.312 97.192ZM12.16 79.144L11.1677 79.02L11.16 79.0817V79.144H12.16ZM12.16 77.096L11.1618 77.1556L11.1637 77.1879L11.1677 77.22L12.16 77.096ZM8.192 39.72L7.201 39.8542L7.20243 39.864L8.192 39.72ZM5.632 21.928L4.64423 22.084L4.64499 22.0887L5.632 21.928ZM7.296 6.824L8.11386 7.39953L8.12004 7.39053L7.296 6.824ZM10.496 3.24L9.8713 2.45913L9.85807 2.46971L9.84521 2.48074L10.496 3.24ZM16.768 3.11199L15.9593 3.70016L15.9688 3.7132L15.9786 3.72593L16.768 3.11199ZM18.048 6.312L17.0651 6.49628L17.0651 6.49629L18.048 6.312ZM18.688 11.944H19.688V11.9083L19.6855 11.8727L18.688 11.944ZM18.944 15.4L17.9541 15.5414L17.9555 15.5513L17.9571 15.5611L18.944 15.4ZM21.888 31.4L20.9069 31.5936L20.9086 31.6019L20.9104 31.6102L21.888 31.4ZM25.472 51.24L24.4802 51.368L26.4685 51.323L25.472 51.24ZM25.984 42.28L26.9831 42.3234L26.9834 42.3151L25.984 42.28ZM26.752 29.608L25.7565 29.5132L25.7565 29.5132L26.752 29.608ZM28.416 18.984L29.3927 19.1984L29.3982 19.1735L29.4024 19.1484L28.416 18.984ZM30.464 12.328L29.5355 11.9566L29.5327 11.9637L29.5299 11.9709L30.464 12.328ZM34.688 4.392L33.8742 3.81075L33.8702 3.8165L34.688 4.392ZM41.7031 2.41966C41.9142 2.55399 42.1551 2.83425 42.3446 3.41981C42.5351 4.00869 42.648 4.83278 42.648 5.92799H44.648C44.648 4.7192 44.5263 3.66596 44.2474 2.80417C43.9676 1.93907 43.5044 1.19533 42.7769 0.732334L41.7031 2.41966ZM42.648 5.92799C42.648 7.96514 42.3208 10.5783 41.6455 13.786L43.6026 14.198C44.2926 10.9204 44.648 8.15752 44.648 5.92799H42.648ZM41.6376 13.8276C41.4666 14.8537 41.3374 15.6606 41.2508 16.2454C41.1704 16.7878 41.112 17.2281 41.112 17.448H43.112C43.112 17.4532 43.1146 17.3908 43.1367 17.2083C43.1566 17.0448 43.1871 16.8226 43.2292 16.5385C43.3132 15.9714 43.4401 15.1783 43.6104 14.1564L41.6376 13.8276ZM41.1127 17.4101C40.8574 24.1328 40.4323 30.0799 39.8385 35.254L41.8255 35.482C42.4264 30.2454 42.8546 24.2459 43.1113 17.4859L41.1127 17.4101ZM39.8374 35.2642C38.218 50.7761 36.3455 63.2777 34.224 72.7821L36.176 73.2179C38.3211 63.6076 40.2033 51.0212 41.8266 35.4718L39.8374 35.2642ZM34.2242 72.7813C33.1175 77.7188 32.0992 81.7479 31.1695 84.875L33.0865 85.445C34.0342 82.2574 35.0638 78.1798 36.1758 73.2187L34.2242 72.7813ZM31.1645 84.8924C30.3374 87.8699 29.0087 90.9492 27.1666 94.131L28.8974 95.133C30.81 91.8295 32.212 88.5941 33.0915 85.4276L31.1645 84.8924ZM27.1666 94.131C25.3692 97.2355 23.1591 99.3819 20.5557 100.644L21.4283 102.444C24.4569 100.975 26.9401 98.5138 28.8974 95.133L27.1666 94.131ZM20.5729 100.636C19.5424 101.112 18.7082 101.312 18.048 101.312V103.312C19.0945 103.312 20.2229 103 21.4111 102.452L20.5729 100.636ZM18.048 101.312C17.1233 101.312 16.4003 100.995 15.8061 100.353C15.1819 99.6782 14.651 98.5876 14.2876 96.9725L12.3364 97.4115C12.741 99.2097 13.3834 100.679 14.3379 101.711C15.3224 102.775 16.5834 103.312 18.048 103.312V101.312ZM14.2887 96.9776C13.5416 93.5741 13.16 89.2573 13.16 84.008H11.16C11.16 89.3401 11.5464 93.8126 12.3353 97.4064L14.2887 96.9776ZM13.16 84.008V80.936H11.16V84.008H13.16ZM13.16 80.936C13.16 80.935 13.16 80.934 13.16 80.933C13.16 80.932 13.16 80.931 13.16 80.93C13.16 80.929 13.16 80.928 13.16 80.927C13.16 80.926 13.16 80.925 13.16 80.924C13.16 80.923 13.16 80.922 13.16 80.921C13.16 80.92 13.16 80.919 13.16 80.918C13.16 80.917 13.16 80.916 13.16 80.915C13.16 80.9139 13.16 80.9129 13.16 80.9119C13.16 80.9109 13.16 80.9099 13.16 80.9089C13.16 80.9079 13.16 80.9069 13.16 80.9059C13.16 80.9049 13.16 80.9039 13.16 80.9029C13.16 80.9019 13.16 80.9009 13.16 80.8999C13.16 80.8989 13.16 80.8978 13.16 80.8968C13.16 80.8958 13.16 80.8948 13.16 80.8938C13.16 80.8928 13.16 80.8918 13.16 80.8908C13.16 80.8898 13.16 80.8888 13.16 80.8877C13.16 80.8867 13.16 80.8857 13.16 80.8847C13.16 80.8837 13.16 80.8827 13.16 80.8817C13.16 80.8807 13.16 80.8797 13.16 80.8786C13.16 80.8776 13.16 80.8766 13.16 80.8756C13.16 80.8746 13.16 80.8736 13.16 80.8726C13.16 80.8716 13.16 80.8705 13.16 80.8695C13.16 80.8685 13.16 80.8675 13.16 80.8665C13.16 80.8655 13.16 80.8645 13.16 80.8634C13.16 80.8624 13.16 80.8614 13.16 80.8604C13.16 80.8594 13.16 80.8584 13.16 80.8573C13.16 80.8563 13.16 80.8553 13.16 80.8543C13.16 80.8533 13.16 80.8523 13.16 80.8512C13.16 80.8502 13.16 80.8492 13.16 80.8482C13.16 80.8472 13.16 80.8461 13.16 80.8451C13.16 80.8441 13.16 80.8431 13.16 80.8421C13.16 80.841 13.16 80.84 13.16 80.839C13.16 80.838 13.16 80.837 13.16 80.8359C13.16 80.8349 13.16 80.8339 13.16 80.8329C13.16 80.8318 13.16 80.8308 13.16 80.8298C13.16 80.8288 13.16 80.8278 13.16 80.8267C13.16 80.8257 13.16 80.8247 13.16 80.8237C13.16 80.8226 13.16 80.8216 13.16 80.8206C13.16 80.8196 13.16 80.8185 13.16 80.8175C13.16 80.8165 13.16 80.8155 13.16 80.8144C13.16 80.8134 13.16 80.8124 13.16 80.8114C13.16 80.8103 13.16 80.8093 13.16 80.8083C13.16 80.8072 13.16 80.8062 13.16 80.8052C13.16 80.8042 13.16 80.8031 13.16 80.8021C13.16 80.8011 13.16 80.8001 13.16 80.799C13.16 80.798 13.16 80.797 13.16 80.7959C13.16 80.7949 13.16 80.7939 13.16 80.7928C13.16 80.7918 13.16 80.7908 13.16 80.7897C13.16 80.7887 13.16 80.7877 13.16 80.7867C13.16 80.7856 13.16 80.7846 13.16 80.7836C13.16 80.7825 13.16 80.7815 13.16 80.7805C13.16 80.7794 13.16 80.7784 13.16 80.7774C13.16 80.7763 13.16 80.7753 13.16 80.7743C13.16 80.7732 13.16 80.7722 13.16 80.7712C13.16 80.7701 13.16 80.7691 13.16 80.768C13.16 80.767 13.16 80.766 13.16 80.7649C13.16 80.7639 13.16 80.7629 13.16 80.7618C13.16 80.7608 13.16 80.7598 13.16 80.7587C13.16 80.7577 13.16 80.7566 13.16 80.7556C13.16 80.7546 13.16 80.7535 13.16 80.7525C13.16 80.7514 13.16 80.7504 13.16 80.7494C13.16 80.7483 13.16 80.7473 13.16 80.7462C13.16 80.7452 13.16 80.7442 13.16 80.7431C13.16 80.7421 13.16 80.741 13.16 80.74C13.16 80.739 13.16 80.7379 13.16 80.7369C13.16 80.7358 13.16 80.7348 13.16 80.7337C13.16 80.7327 13.16 80.7317 13.16 80.7306C13.16 80.7296 13.16 80.7285 13.16 80.7275C13.16 80.7264 13.16 80.7254 13.16 80.7243C13.16 80.7233 13.16 80.7223 13.16 80.7212C13.16 80.7202 13.16 80.7191 13.16 80.7181C13.16 80.717 13.16 80.716 13.16 80.7149C13.16 80.7139 13.16 80.7128 13.16 80.7118C13.16 80.7107 13.16 80.7097 13.16 80.7087C13.16 80.7076 13.16 80.7066 13.16 80.7055C13.16 80.7045 13.16 80.7034 13.16 80.7024C13.16 80.7013 13.16 80.7003 13.16 80.6992C13.16 80.6982 13.16 80.6971 13.16 80.6961C13.16 80.695 13.16 80.694 13.16 80.6929C13.16 80.6919 13.16 80.6908 13.16 80.6897C13.16 80.6887 13.16 80.6876 13.16 80.6866C13.16 80.6855 13.16 80.6845 13.16 80.6834C13.16 80.6824 13.16 80.6813 13.16 80.6803C13.16 80.6792 13.16 80.6782 13.16 80.6771C13.16 80.6761 13.16 80.675 13.16 80.6739C13.16 80.6729 13.16 80.6718 13.16 80.6708C13.16 80.6697 13.16 80.6687 13.16 80.6676C13.16 80.6666 13.16 80.6655 13.16 80.6644C13.16 80.6634 13.16 80.6623 13.16 80.6613C13.16 80.6602 13.16 80.6591 13.16 80.6581C13.16 80.657 13.16 80.656 13.16 80.6549C13.16 80.6539 13.16 80.6528 13.16 80.6517C13.16 80.6507 13.16 80.6496 13.16 80.6486C13.16 80.6475 13.16 80.6464 13.16 80.6454C13.16 80.6443 13.16 80.6432 13.16 80.6422C13.16 80.6411 13.16 80.6401 13.16 80.639C13.16 80.6379 13.16 80.6369 13.16 80.6358C13.16 80.6347 13.16 80.6337 13.16 80.6326C13.16 80.6316 13.16 80.6305 13.16 80.6294C13.16 80.6284 13.16 80.6273 13.16 80.6262C13.16 80.6252 13.16 80.6241 13.16 80.623C13.16 80.622 13.16 80.6209 13.16 80.6198C13.16 80.6188 13.16 80.6177 13.16 80.6166C13.16 80.6156 13.16 80.6145 13.16 80.6134C13.16 80.6124 13.16 80.6113 13.16 80.6102C13.16 80.6092 13.16 80.6081 13.16 80.607C13.16 80.606 13.16 80.6049 13.16 80.6038C13.16 80.6027 13.16 80.6017 13.16 80.6006C13.16 80.5995 13.16 80.5985 13.16 80.5974C13.16 80.5963 13.16 80.5953 13.16 80.5942C13.16 80.5931 13.16 80.592 13.16 80.591C13.16 80.5899 13.16 80.5888 13.16 80.5877C13.16 80.5867 13.16 80.5856 13.16 80.5845C13.16 80.5835 13.16 80.5824 13.16 80.5813C13.16 80.5802 13.16 80.5792 13.16 80.5781C13.16 80.577 13.16 80.5759 13.16 80.5749C13.16 80.5738 13.16 80.5727 13.16 80.5716C13.16 80.5706 13.16 80.5695 13.16 80.5684C13.16 80.5673 13.16 80.5662 13.16 80.5652C13.16 80.5641 13.16 80.563 13.16 80.5619C13.16 80.5609 13.16 80.5598 13.16 80.5587C13.16 80.5576 13.16 80.5565 13.16 80.5555C13.16 80.5544 13.16 80.5533 13.16 80.5522C13.16 80.5511 13.16 80.5501 13.16 80.549C13.16 80.5479 13.16 80.5468 13.16 80.5457C13.16 80.5447 13.16 80.5436 13.16 80.5425C13.16 80.5414 13.16 80.5403 13.16 80.5392C13.16 80.5382 13.16 80.5371 13.16 80.536C13.16 80.5349 13.16 80.5338 13.16 80.5327C13.16 80.5317 13.16 80.5306 13.16 80.5295C13.16 80.5284 13.16 80.5273 13.16 80.5262C13.16 80.5252 13.16 80.5241 13.16 80.523C13.16 80.5219 13.16 80.5208 13.16 80.5197C13.16 80.5186 13.16 80.5176 13.16 80.5165C13.16 80.5154 13.16 80.5143 13.16 80.5132C13.16 80.5121 13.16 80.511 13.16 80.5099C13.16 80.5088 13.16 80.5078 13.16 80.5067C13.16 80.5056 13.16 80.5045 13.16 80.5034C13.16 80.5023 13.16 80.5012 13.16 80.5001C13.16 80.499 13.16 80.4979 13.16 80.4969C13.16 80.4958 13.16 80.4947 13.16 80.4936C13.16 80.4925 13.16 80.4914 13.16 80.4903C13.16 80.4892 13.16 80.4881 13.16 80.487C13.16 80.4859 13.16 80.4848 13.16 80.4837C13.16 80.4827 13.16 80.4816 13.16 80.4805C13.16 80.4794 13.16 80.4783 13.16 80.4772C13.16 80.4761 13.16 80.475 13.16 80.4739C13.16 80.4728 13.16 80.4717 13.16 80.4706C13.16 80.4695 13.16 80.4684 13.16 80.4673C13.16 80.4662 13.16 80.4651 13.16 80.464C13.16 80.4629 13.16 80.4618 13.16 80.4607C13.16 80.4596 13.16 80.4585 13.16 80.4574C13.16 80.4563 13.16 80.4552 13.16 80.4541C13.16 80.453 13.16 80.4519 13.16 80.4508C13.16 80.4497 13.16 80.4486 13.16 80.4475C13.16 80.4464 13.16 80.4453 13.16 80.4442C13.16 80.4431 13.16 80.442 13.16 80.4409C13.16 80.4398 13.16 80.4387 13.16 80.4376C13.16 80.4365 13.16 80.4354 13.16 80.4343C13.16 80.4332 13.16 80.4321 13.16 80.431C13.16 80.4299 13.16 80.4288 13.16 80.4277C13.16 80.4266 13.16 80.4255 13.16 80.4244C13.16 80.4233 13.16 80.4222 13.16 80.4211C13.16 80.4199 13.16 80.4188 13.16 80.4177C13.16 80.4166 13.16 80.4155 13.16 80.4144C13.16 80.4133 13.16 80.4122 13.16 80.4111C13.16 80.41 13.16 80.4089 13.16 80.4078C13.16 80.4067 13.16 80.4055 13.16 80.4044C13.16 80.4033 13.16 80.4022 13.16 80.4011C13.16 80.4 13.16 80.3989 13.16 80.3978C13.16 80.3967 13.16 80.3956 13.16 80.3944C13.16 80.3933 13.16 80.3922 13.16 80.3911C13.16 80.39 13.16 80.3889 13.16 80.3878C13.16 80.3867 13.16 80.3855 13.16 80.3844C13.16 80.3833 13.16 80.3822 13.16 80.3811C13.16 80.38 13.16 80.3789 13.16 80.3777C13.16 80.3766 13.16 80.3755 13.16 80.3744C13.16 80.3733 13.16 80.3722 13.16 80.3711C13.16 80.3699 13.16 80.3688 13.16 80.3677C13.16 80.3666 13.16 80.3655 13.16 80.3644C13.16 80.3632 13.16 80.3621 13.16 80.361C13.16 80.3599 13.16 80.3588 13.16 80.3577C13.16 80.3565 13.16 80.3554 13.16 80.3543C13.16 80.3532 13.16 80.3521 13.16 80.3509C13.16 80.3498 13.16 80.3487 13.16 80.3476C13.16 80.3465 13.16 80.3453 13.16 80.3442C13.16 80.3431 13.16 80.342 13.16 80.3408C13.16 80.3397 13.16 80.3386 13.16 80.3375C13.16 80.3364 13.16 80.3352 13.16 80.3341C13.16 80.333 13.16 80.3319 13.16 80.3307C13.16 80.3296 13.16 80.3285 13.16 80.3274C13.16 80.3262 13.16 80.3251 13.16 80.324C13.16 80.3229 13.16 80.3217 13.16 80.3206C13.16 80.3195 13.16 80.3184 13.16 80.3172C13.16 80.3161 13.16 80.315 13.16 80.3139C13.16 80.3127 13.16 80.3116 13.16 80.3105C13.16 80.3094 13.16 80.3082 13.16 80.3071C13.16 80.306 13.16 80.3048 13.16 80.3037C13.16 80.3026 13.16 80.3015 13.16 80.3003C13.16 80.2992 13.16 80.2981 13.16 80.2969C13.16 80.2958 13.16 80.2947 13.16 80.2935C13.16 80.2924 13.16 80.2913 13.16 80.2902C13.16 80.289 13.16 80.2879 13.16 80.2868C13.16 80.2856 13.16 80.2845 13.16 80.2834C13.16 80.2822 13.16 80.2811 13.16 80.28C13.16 80.2788 13.16 80.2777 13.16 80.2766C13.16 80.2754 13.16 80.2743 13.16 80.2732C13.16 80.272 13.16 80.2709 13.16 80.2697C13.16 80.2686 13.16 80.2675 13.16 80.2663C13.16 80.2652 13.16 80.2641 13.16 80.2629C13.16 80.2618 13.16 80.2607 13.16 80.2595C13.16 80.2584 13.16 80.2572 13.16 80.2561C13.16 80.255 13.16 80.2538 13.16 80.2527C13.16 80.2516 13.16 80.2504 13.16 80.2493C13.16 80.2481 13.16 80.247 13.16 80.2459C13.16 80.2447 13.16 80.2436 13.16 80.2424C13.16 80.2413 13.16 80.2402 13.16 80.239C13.16 80.2379 13.16 80.2367 13.16 80.2356C13.16 80.2344 13.16 80.2333 13.16 80.2322C13.16 80.231 13.16 80.2299 13.16 80.2287C13.16 80.2276 13.16 80.2264 13.16 80.2253C13.16 80.2242 13.16 80.223 13.16 80.2219C13.16 80.2207 13.16 80.2196 13.16 80.2184C13.16 80.2173 13.16 80.2161 13.16 80.215C13.16 80.2139 13.16 80.2127 13.16 80.2116C13.16 80.2104 13.16 80.2093 13.16 80.2081C13.16 80.207 13.16 80.2058 13.16 80.2047C13.16 80.2035 13.16 80.2024 13.16 80.2012C13.16 80.2001 13.16 80.1989 13.16 80.1978C13.16 80.1966 13.16 80.1955 13.16 80.1943C13.16 80.1932 13.16 80.192 13.16 80.1909C13.16 80.1897 13.16 80.1886 13.16 80.1874C13.16 80.1863 13.16 80.1851 13.16 80.184C13.16 80.1828 13.16 80.1817 13.16 80.1805C13.16 80.1794 13.16 80.1782 13.16 80.1771C13.16 80.1759 13.16 80.1748 13.16 80.1736C13.16 80.1725 13.16 80.1713 13.16 80.1701C13.16 80.169 13.16 80.1678 13.16 80.1667C13.16 80.1655 13.16 80.1644 13.16 80.1632C13.16 80.1621 13.16 80.1609 13.16 80.1597C13.16 80.1586 13.16 80.1574 13.16 80.1563C13.16 80.1551 13.16 80.154 13.16 80.1528C13.16 80.1517 13.16 80.1505 13.16 80.1493C13.16 80.1482 13.16 80.147 13.16 80.1459C13.16 80.1447 13.16 80.1435 13.16 80.1424C13.16 80.1412 13.16 80.1401 13.16 80.1389C13.16 80.1377 13.16 80.1366 13.16 80.1354C13.16 80.1343 13.16 80.1331 13.16 80.1319C13.16 80.1308 13.16 80.1296 13.16 80.1285C13.16 80.1273 13.16 80.1261 13.16 80.125C13.16 80.1238 13.16 80.1226 13.16 80.1215C13.16 80.1203 13.16 80.1191 13.16 80.118C13.16 80.1168 13.16 80.1157 13.16 80.1145C13.16 80.1133 13.16 80.1122 13.16 80.111C13.16 80.1098 13.16 80.1087 13.16 80.1075C13.16 80.1063 13.16 80.1052 13.16 80.104C13.16 80.1028 13.16 80.1017 13.16 80.1005C13.16 80.0993 13.16 80.0982 13.16 80.097C13.16 80.0958 13.16 80.0947 13.16 80.0935C13.16 80.0923 13.16 80.0912 13.16 80.09C13.16 80.0888 13.16 80.0876 13.16 80.0865C13.16 80.0853 13.16 80.0841 13.16 80.083C13.16 80.0818 13.16 80.0806 13.16 80.0795C13.16 80.0783 13.16 80.0771 13.16 80.0759C13.16 80.0748 13.16 80.0736 13.16 80.0724C13.16 80.0712 13.16 80.0701 13.16 80.0689C13.16 80.0677 13.16 80.0666 13.16 80.0654C13.16 80.0642 13.16 80.063 13.16 80.0619C13.16 80.0607 13.16 80.0595 13.16 80.0583C13.16 80.0572 13.16 80.056 13.16 80.0548C13.16 80.0536 13.16 80.0525 13.16 80.0513C13.16 80.0501 13.16 80.0489 13.16 80.0477C13.16 80.0466 13.16 80.0454 13.16 80.0442C13.16 80.043 13.16 80.0419 13.16 80.0407C13.16 80.0395 13.16 80.0383 13.16 80.0371C13.16 80.036 13.16 80.0348 13.16 80.0336C13.16 80.0324 13.16 80.0312 13.16 80.0301C13.16 80.0289 13.16 80.0277 13.16 80.0265C13.16 80.0253 13.16 80.0242 13.16 80.023C13.16 80.0218 13.16 80.0206 13.16 80.0194C13.16 80.0183 13.16 80.0171 13.16 80.0159C13.16 80.0147 13.16 80.0135 13.16 80.0123C13.16 80.0112 13.16 80.01 13.16 80.0088C13.16 80.0076 13.16 80.0064 13.16 80.0052C13.16 80.004 13.16 80.0029 13.16 80.0017C13.16 80.0005 13.16 79.9993 13.16 79.9981C13.16 79.9969 13.16 79.9957 13.16 79.9946C13.16 79.9934 13.16 79.9922 13.16 79.991C13.16 79.9898 13.16 79.9886 13.16 79.9874C13.16 79.9862 13.16 79.9851 13.16 79.9839C13.16 79.9827 13.16 79.9815 13.16 79.9803C13.16 79.9791 13.16 79.9779 13.16 79.9767C13.16 79.9755 13.16 79.9744 13.16 79.9732C13.16 79.972 13.16 79.9708 13.16 79.9696C13.16 79.9684 13.16 79.9672 13.16 79.966C13.16 79.9648 13.16 79.9636 13.16 79.9624C13.16 79.9612 13.16 79.9601 13.16 79.9589C13.16 79.9577 13.16 79.9565 13.16 79.9553C13.16 79.9541 13.16 79.9529 13.16 79.9517C13.16 79.9505 13.16 79.9493 13.16 79.9481C13.16 79.9469 13.16 79.9457 13.16 79.9445C13.16 79.9433 13.16 79.9421 13.16 79.9409C13.16 79.9397 13.16 79.9385 13.16 79.9373C13.16 79.9361 13.16 79.9349 13.16 79.9337C13.16 79.9326 13.16 79.9314 13.16 79.9302C13.16 79.929 13.16 79.9278 13.16 79.9266C13.16 79.9254 13.16 79.9242 13.16 79.923C13.16 79.9218 13.16 79.9206 13.16 79.9194C13.16 79.9182 13.16 79.917 13.16 79.9158C13.16 79.9146 13.16 79.9134 13.16 79.9122C13.16 79.9109 13.16 79.9097 13.16 79.9085C13.16 79.9073 13.16 79.9061 13.16 79.9049C13.16 79.9037 13.16 79.9025 13.16 79.9013C13.16 79.9001 13.16 79.8989 13.16 79.8977C13.16 79.8965 13.16 79.8953 13.16 79.8941C13.16 79.8929 13.16 79.8917 13.16 79.8905C13.16 79.8893 13.16 79.8881 13.16 79.8869C13.16 79.8857 13.16 79.8845 13.16 79.8832C13.16 79.882 13.16 79.8808 13.16 79.8796C13.16 79.8784 13.16 79.8772 13.16 79.876C13.16 79.8748 13.16 79.8736 13.16 79.8724C13.16 79.8712 13.16 79.87 13.16 79.8687C13.16 79.8675 13.16 79.8663 13.16 79.8651C13.16 79.8639 13.16 79.8627 13.16 79.8615C13.16 79.8603 13.16 79.8591 13.16 79.8578C13.16 79.8566 13.16 79.8554 13.16 79.8542C13.16 79.853 13.16 79.8518 13.16 79.8506C13.16 79.8494 13.16 79.8482 13.16 79.8469C13.16 79.8457 13.16 79.8445 13.16 79.8433C13.16 79.8421 13.16 79.8409 13.16 79.8397C13.16 79.8384 13.16 79.8372 13.16 79.836C13.16 79.8348 13.16 79.8336 13.16 79.8324C13.16 79.8311 13.16 79.8299 13.16 79.8287C13.16 79.8275 13.16 79.8263 13.16 79.8251C13.16 79.8238 13.16 79.8226 13.16 79.8214C13.16 79.8202 13.16 79.819 13.16 79.8177C13.16 79.8165 13.16 79.8153 13.16 79.8141C13.16 79.8129 13.16 79.8117 13.16 79.8104C13.16 79.8092 13.16 79.808 13.16 79.8068C13.16 79.8056 13.16 79.8043 13.16 79.8031C13.16 79.8019 13.16 79.8007 13.16 79.7994C13.16 79.7982 13.16 79.797 13.16 79.7958C13.16 79.7946 13.16 79.7933 13.16 79.7921C13.16 79.7909 13.16 79.7897 13.16 79.7884C13.16 79.7872 13.16 79.786 13.16 79.7848C13.16 79.7835 13.16 79.7823 13.16 79.7811C13.16 79.7799 13.16 79.7786 13.16 79.7774C13.16 79.7762 13.16 79.775 13.16 79.7737C13.16 79.7725 13.16 79.7713 13.16 79.7701C13.16 79.7688 13.16 79.7676 13.16 79.7664C13.16 79.7651 13.16 79.7639 13.16 79.7627C13.16 79.7615 13.16 79.7602 13.16 79.759C13.16 79.7578 13.16 79.7565 13.16 79.7553C13.16 79.7541 13.16 79.7529 13.16 79.7516C13.16 79.7504 13.16 79.7492 13.16 79.7479C13.16 79.7467 13.16 79.7455 13.16 79.7442C13.16 79.743 13.16 79.7418 13.16 79.7405C13.16 79.7393 13.16 79.7381 13.16 79.7368C13.16 79.7356 13.16 79.7344 13.16 79.7331C13.16 79.7319 13.16 79.7307 13.16 79.7294C13.16 79.7282 13.16 79.727 13.16 79.7257C13.16 79.7245 13.16 79.7233 13.16 79.722C13.16 79.7208 13.16 79.7196 13.16 79.7183C13.16 79.7171 13.16 79.7158 13.16 79.7146C13.16 79.7134 13.16 79.7121 13.16 79.7109C13.16 79.7097 13.16 79.7084 13.16 79.7072C13.16 79.7059 13.16 79.7047 13.16 79.7035C13.16 79.7022 13.16 79.701 13.16 79.6997C13.16 79.6985 13.16 79.6973 13.16 79.696C13.16 79.6948 13.16 79.6935 13.16 79.6923C13.16 79.6911 13.16 79.6898 13.16 79.6886C13.16 79.6873 13.16 79.6861 13.16 79.6849C13.16 79.6836 13.16 79.6824 13.16 79.6811C13.16 79.6799 13.16 79.6786 13.16 79.6774C13.16 79.6762 13.16 79.6749 13.16 79.6737C13.16 79.6724 13.16 79.6712 13.16 79.6699C13.16 79.6687 13.16 79.6674 13.16 79.6662C13.16 79.665 13.16 79.6637 13.16 79.6625C13.16 79.6612 13.16 79.66 13.16 79.6587C13.16 79.6575 13.16 79.6562 13.16 79.655C13.16 79.6537 13.16 79.6525 13.16 79.6512C13.16 79.65 13.16 79.6487 13.16 79.6475C13.16 79.6462 13.16 79.645 13.16 79.6437C13.16 79.6425 13.16 79.6412 13.16 79.64C13.16 79.6387 13.16 79.6375 13.16 79.6362C13.16 79.635 13.16 79.6337 13.16 79.6325C13.16 79.6312 13.16 79.63 13.16 79.6287C13.16 79.6275 13.16 79.6262 13.16 79.625C13.16 79.6237 13.16 79.6225 13.16 79.6212C13.16 79.62 13.16 79.6187 13.16 79.6175C13.16 79.6162 13.16 79.615 13.16 79.6137C13.16 79.6124 13.16 79.6112 13.16 79.6099C13.16 79.6087 13.16 79.6074 13.16 79.6062C13.16 79.6049 13.16 79.6037 13.16 79.6024C13.16 79.6011 13.16 79.5999 13.16 79.5986C13.16 79.5974 13.16 79.5961 13.16 79.5949C13.16 79.5936 13.16 79.5923 13.16 79.5911C13.16 79.5898 13.16 79.5886 13.16 79.5873C13.16 79.586 13.16 79.5848 13.16 79.5835C13.16 79.5823 13.16 79.581 13.16 79.5797C13.16 79.5785 13.16 79.5772 13.16 79.576C13.16 79.5747 13.16 79.5734 13.16 79.5722C13.16 79.5709 13.16 79.5697 13.16 79.5684C13.16 79.5671 13.16 79.5659 13.16 79.5646C13.16 79.5633 13.16 79.5621 13.16 79.5608C13.16 79.5596 13.16 79.5583 13.16 79.557C13.16 79.5558 13.16 79.5545 13.16 79.5532C13.16 79.552 13.16 79.5507 13.16 79.5494C13.16 79.5482 13.16 79.5469 13.16 79.5456C13.16 79.5444 13.16 79.5431 13.16 79.5418C13.16 79.5406 13.16 79.5393 13.16 79.538C13.16 79.5368 13.16 79.5355 13.16 79.5342C13.16 79.533 13.16 79.5317 13.16 79.5304C13.16 79.5292 13.16 79.5279 13.16 79.5266C13.16 79.5254 13.16 79.5241 13.16 79.5228C13.16 79.5215 13.16 79.5203 13.16 79.519C13.16 79.5177 13.16 79.5165 13.16 79.5152C13.16 79.5139 13.16 79.5126 13.16 79.5114C13.16 79.5101 13.16 79.5088 13.16 79.5076C13.16 79.5063 13.16 79.505 13.16 79.5037C13.16 79.5025 13.16 79.5012 13.16 79.4999C13.16 79.4986 13.16 79.4974 13.16 79.4961C13.16 79.4948 13.16 79.4935 13.16 79.4923C13.16 79.491 13.16 79.4897 13.16 79.4884C13.16 79.4872 13.16 79.4859 13.16 79.4846C13.16 79.4833 13.16 79.4821 13.16 79.4808C13.16 79.4795 13.16 79.4782 13.16 79.4769C13.16 79.4757 13.16 79.4744 13.16 79.4731C13.16 79.4718 13.16 79.4706 13.16 79.4693C13.16 79.468 13.16 79.4667 13.16 79.4654C13.16 79.4642 13.16 79.4629 13.16 79.4616C13.16 79.4603 13.16 79.459 13.16 79.4577C13.16 79.4565 13.16 79.4552 13.16 79.4539C13.16 79.4526 13.16 79.4513 13.16 79.4501C13.16 79.4488 13.16 79.4475 13.16 79.4462C13.16 79.4449 13.16 79.4436 13.16 79.4424C13.16 79.4411 13.16 79.4398 13.16 79.4385C13.16 79.4372 13.16 79.4359 13.16 79.4347C13.16 79.4334 13.16 79.4321 13.16 79.4308C13.16 79.4295 13.16 79.4282 13.16 79.4269C13.16 79.4257 13.16 79.4244 13.16 79.4231C13.16 79.4218 13.16 79.4205 13.16 79.4192C13.16 79.4179 13.16 79.4166 13.16 79.4153C13.16 79.4141 13.16 79.4128 13.16 79.4115C13.16 79.4102 13.16 79.4089 13.16 79.4076C13.16 79.4063 13.16 79.405 13.16 79.4037C13.16 79.4025 13.16 79.4012 13.16 79.3999C13.16 79.3986 13.16 79.3973 13.16 79.396C13.16 79.3947 13.16 79.3934 13.16 79.3921C13.16 79.3908 13.16 79.3895 13.16 79.3882C13.16 79.387 13.16 79.3857 13.16 79.3844C13.16 79.3831 13.16 79.3818 13.16 79.3805C13.16 79.3792 13.16 79.3779 13.16 79.3766C13.16 79.3753 13.16 79.374 13.16 79.3727C13.16 79.3714 13.16 79.3701 13.16 79.3688C13.16 79.3675 13.16 79.3662 13.16 79.3649C13.16 79.3636 13.16 79.3623 13.16 79.361C13.16 79.3597 13.16 79.3584 13.16 79.3572C13.16 79.3559 13.16 79.3546 13.16 79.3533C13.16 79.352 13.16 79.3507 13.16 79.3494C13.16 79.3481 13.16 79.3468 13.16 79.3455C13.16 79.3442 13.16 79.3429 13.16 79.3416C13.16 79.3403 13.16 79.339 13.16 79.3377C13.16 79.3364 13.16 79.3351 13.16 79.3337C13.16 79.3324 13.16 79.3311 13.16 79.3298C13.16 79.3285 13.16 79.3272 13.16 79.3259C13.16 79.3246 13.16 79.3233 13.16 79.322C13.16 79.3207 13.16 79.3194 13.16 79.3181C13.16 79.3168 13.16 79.3155 13.16 79.3142C13.16 79.3129 13.16 79.3116 13.16 79.3103C13.16 79.309 13.16 79.3077 13.16 79.3064C13.16 79.3051 13.16 79.3037 13.16 79.3024C13.16 79.3011 13.16 79.2998 13.16 79.2985C13.16 79.2972 13.16 79.2959 13.16 79.2946C13.16 79.2933 13.16 79.292 13.16 79.2907C13.16 79.2894 13.16 79.288 13.16 79.2867C13.16 79.2854 13.16 79.2841 13.16 79.2828C13.16 79.2815 13.16 79.2802 13.16 79.2789C13.16 79.2776 13.16 79.2762 13.16 79.2749C13.16 79.2736 13.16 79.2723 13.16 79.271C13.16 79.2697 13.16 79.2684 13.16 79.2671C13.16 79.2657 13.16 79.2644 13.16 79.2631C13.16 79.2618 13.16 79.2605 13.16 79.2592C13.16 79.2579 13.16 79.2565 13.16 79.2552C13.16 79.2539 13.16 79.2526 13.16 79.2513C13.16 79.25 13.16 79.2487 13.16 79.2473C13.16 79.246 13.16 79.2447 13.16 79.2434C13.16 79.2421 13.16 79.2408 13.16 79.2394C13.16 79.2381 13.16 79.2368 13.16 79.2355C13.16 79.2342 13.16 79.2328 13.16 79.2315C13.16 79.2302 13.16 79.2289 13.16 79.2276C13.16 79.2262 13.16 79.2249 13.16 79.2236C13.16 79.2223 13.16 79.221 13.16 79.2196C13.16 79.2183 13.16 79.217 13.16 79.2157C13.16 79.2144 13.16 79.213 13.16 79.2117C13.16 79.2104 13.16 79.2091 13.16 79.2077C13.16 79.2064 13.16 79.2051 13.16 79.2038C13.16 79.2025 13.16 79.2011 13.16 79.1998C13.16 79.1985 13.16 79.1972 13.16 79.1958C13.16 79.1945 13.16 79.1932 13.16 79.1919C13.16 79.1905 13.16 79.1892 13.16 79.1879C13.16 79.1866 13.16 79.1852 13.16 79.1839C13.16 79.1826 13.16 79.1812 13.16 79.1799C13.16 79.1786 13.16 79.1773 13.16 79.1759C13.16 79.1746 13.16 79.1733 13.16 79.172C13.16 79.1706 13.16 79.1693 13.16 79.168C13.16 79.1666 13.16 79.1653 13.16 79.164C13.16 79.1626 13.16 79.1613 13.16 79.16C13.16 79.1587 13.16 79.1573 13.16 79.156C13.16 79.1547 13.16 79.1533 13.16 79.152C13.16 79.1507 13.16 79.1493 13.16 79.148C13.16 79.1467 13.16 79.1453 13.16 79.144H11.16C11.16 79.1453 11.16 79.1467 11.16 79.148C11.16 79.1493 11.16 79.1507 11.16 79.152C11.16 79.1533 11.16 79.1547 11.16 79.156C11.16 79.1573 11.16 79.1587 11.16 79.16C11.16 79.1613 11.16 79.1626 11.16 79.164C11.16 79.1653 11.16 79.1666 11.16 79.168C11.16 79.1693 11.16 79.1706 11.16 79.172C11.16 79.1733 11.16 79.1746 11.16 79.1759C11.16 79.1773 11.16 79.1786 11.16 79.1799C11.16 79.1812 11.16 79.1826 11.16 79.1839C11.16 79.1852 11.16 79.1866 11.16 79.1879C11.16 79.1892 11.16 79.1905 11.16 79.1919C11.16 79.1932 11.16 79.1945 11.16 79.1958C11.16 79.1972 11.16 79.1985 11.16 79.1998C11.16 79.2011 11.16 79.2025 11.16 79.2038C11.16 79.2051 11.16 79.2064 11.16 79.2077C11.16 79.2091 11.16 79.2104 11.16 79.2117C11.16 79.213 11.16 79.2144 11.16 79.2157C11.16 79.217 11.16 79.2183 11.16 79.2196C11.16 79.221 11.16 79.2223 11.16 79.2236C11.16 79.2249 11.16 79.2262 11.16 79.2276C11.16 79.2289 11.16 79.2302 11.16 79.2315C11.16 79.2328 11.16 79.2342 11.16 79.2355C11.16 79.2368 11.16 79.2381 11.16 79.2394C11.16 79.2408 11.16 79.2421 11.16 79.2434C11.16 79.2447 11.16 79.246 11.16 79.2473C11.16 79.2487 11.16 79.25 11.16 79.2513C11.16 79.2526 11.16 79.2539 11.16 79.2552C11.16 79.2565 11.16 79.2579 11.16 79.2592C11.16 79.2605 11.16 79.2618 11.16 79.2631C11.16 79.2644 11.16 79.2657 11.16 79.2671C11.16 79.2684 11.16 79.2697 11.16 79.271C11.16 79.2723 11.16 79.2736 11.16 79.2749C11.16 79.2762 11.16 79.2776 11.16 79.2789C11.16 79.2802 11.16 79.2815 11.16 79.2828C11.16 79.2841 11.16 79.2854 11.16 79.2867C11.16 79.288 11.16 79.2894 11.16 79.2907C11.16 79.292 11.16 79.2933 11.16 79.2946C11.16 79.2959 11.16 79.2972 11.16 79.2985C11.16 79.2998 11.16 79.3011 11.16 79.3024C11.16 79.3037 11.16 79.3051 11.16 79.3064C11.16 79.3077 11.16 79.309 11.16 79.3103C11.16 79.3116 11.16 79.3129 11.16 79.3142C11.16 79.3155 11.16 79.3168 11.16 79.3181C11.16 79.3194 11.16 79.3207 11.16 79.322C11.16 79.3233 11.16 79.3246 11.16 79.3259C11.16 79.3272 11.16 79.3285 11.16 79.3298C11.16 79.3311 11.16 79.3324 11.16 79.3337C11.16 79.3351 11.16 79.3364 11.16 79.3377C11.16 79.339 11.16 79.3403 11.16 79.3416C11.16 79.3429 11.16 79.3442 11.16 79.3455C11.16 79.3468 11.16 79.3481 11.16 79.3494C11.16 79.3507 11.16 79.352 11.16 79.3533C11.16 79.3546 11.16 79.3559 11.16 79.3572C11.16 79.3584 11.16 79.3597 11.16 79.361C11.16 79.3623 11.16 79.3636 11.16 79.3649C11.16 79.3662 11.16 79.3675 11.16 79.3688C11.16 79.3701 11.16 79.3714 11.16 79.3727C11.16 79.374 11.16 79.3753 11.16 79.3766C11.16 79.3779 11.16 79.3792 11.16 79.3805C11.16 79.3818 11.16 79.3831 11.16 79.3844C11.16 79.3857 11.16 79.387 11.16 79.3882C11.16 79.3895 11.16 79.3908 11.16 79.3921C11.16 79.3934 11.16 79.3947 11.16 79.396C11.16 79.3973 11.16 79.3986 11.16 79.3999C11.16 79.4012 11.16 79.4025 11.16 79.4037C11.16 79.405 11.16 79.4063 11.16 79.4076C11.16 79.4089 11.16 79.4102 11.16 79.4115C11.16 79.4128 11.16 79.4141 11.16 79.4153C11.16 79.4166 11.16 79.4179 11.16 79.4192C11.16 79.4205 11.16 79.4218 11.16 79.4231C11.16 79.4244 11.16 79.4257 11.16 79.4269C11.16 79.4282 11.16 79.4295 11.16 79.4308C11.16 79.4321 11.16 79.4334 11.16 79.4347C11.16 79.4359 11.16 79.4372 11.16 79.4385C11.16 79.4398 11.16 79.4411 11.16 79.4424C11.16 79.4436 11.16 79.4449 11.16 79.4462C11.16 79.4475 11.16 79.4488 11.16 79.4501C11.16 79.4513 11.16 79.4526 11.16 79.4539C11.16 79.4552 11.16 79.4565 11.16 79.4577C11.16 79.459 11.16 79.4603 11.16 79.4616C11.16 79.4629 11.16 79.4642 11.16 79.4654C11.16 79.4667 11.16 79.468 11.16 79.4693C11.16 79.4706 11.16 79.4718 11.16 79.4731C11.16 79.4744 11.16 79.4757 11.16 79.4769C11.16 79.4782 11.16 79.4795 11.16 79.4808C11.16 79.4821 11.16 79.4833 11.16 79.4846C11.16 79.4859 11.16 79.4872 11.16 79.4884C11.16 79.4897 11.16 79.491 11.16 79.4923C11.16 79.4935 11.16 79.4948 11.16 79.4961C11.16 79.4974 11.16 79.4986 11.16 79.4999C11.16 79.5012 11.16 79.5025 11.16 79.5037C11.16 79.505 11.16 79.5063 11.16 79.5076C11.16 79.5088 11.16 79.5101 11.16 79.5114C11.16 79.5126 11.16 79.5139 11.16 79.5152C11.16 79.5165 11.16 79.5177 11.16 79.519C11.16 79.5203 11.16 79.5215 11.16 79.5228C11.16 79.5241 11.16 79.5254 11.16 79.5266C11.16 79.5279 11.16 79.5292 11.16 79.5304C11.16 79.5317 11.16 79.533 11.16 79.5342C11.16 79.5355 11.16 79.5368 11.16 79.538C11.16 79.5393 11.16 79.5406 11.16 79.5418C11.16 79.5431 11.16 79.5444 11.16 79.5456C11.16 79.5469 11.16 79.5482 11.16 79.5494C11.16 79.5507 11.16 79.552 11.16 79.5532C11.16 79.5545 11.16 79.5558 11.16 79.557C11.16 79.5583 11.16 79.5596 11.16 79.5608C11.16 79.5621 11.16 79.5633 11.16 79.5646C11.16 79.5659 11.16 79.5671 11.16 79.5684C11.16 79.5697 11.16 79.5709 11.16 79.5722C11.16 79.5734 11.16 79.5747 11.16 79.576C11.16 79.5772 11.16 79.5785 11.16 79.5797C11.16 79.581 11.16 79.5823 11.16 79.5835C11.16 79.5848 11.16 79.586 11.16 79.5873C11.16 79.5886 11.16 79.5898 11.16 79.5911C11.16 79.5923 11.16 79.5936 11.16 79.5949C11.16 79.5961 11.16 79.5974 11.16 79.5986C11.16 79.5999 11.16 79.6011 11.16 79.6024C11.16 79.6037 11.16 79.6049 11.16 79.6062C11.16 79.6074 11.16 79.6087 11.16 79.6099C11.16 79.6112 11.16 79.6124 11.16 79.6137C11.16 79.615 11.16 79.6162 11.16 79.6175C11.16 79.6187 11.16 79.62 11.16 79.6212C11.16 79.6225 11.16 79.6237 11.16 79.625C11.16 79.6262 11.16 79.6275 11.16 79.6287C11.16 79.63 11.16 79.6312 11.16 79.6325C11.16 79.6337 11.16 79.635 11.16 79.6362C11.16 79.6375 11.16 79.6387 11.16 79.64C11.16 79.6412 11.16 79.6425 11.16 79.6437C11.16 79.645 11.16 79.6462 11.16 79.6475C11.16 79.6487 11.16 79.65 11.16 79.6512C11.16 79.6525 11.16 79.6537 11.16 79.655C11.16 79.6562 11.16 79.6575 11.16 79.6587C11.16 79.66 11.16 79.6612 11.16 79.6625C11.16 79.6637 11.16 79.665 11.16 79.6662C11.16 79.6674 11.16 79.6687 11.16 79.6699C11.16 79.6712 11.16 79.6724 11.16 79.6737C11.16 79.6749 11.16 79.6762 11.16 79.6774C11.16 79.6786 11.16 79.6799 11.16 79.6811C11.16 79.6824 11.16 79.6836 11.16 79.6849C11.16 79.6861 11.16 79.6873 11.16 79.6886C11.16 79.6898 11.16 79.6911 11.16 79.6923C11.16 79.6935 11.16 79.6948 11.16 79.696C11.16 79.6973 11.16 79.6985 11.16 79.6997C11.16 79.701 11.16 79.7022 11.16 79.7035C11.16 79.7047 11.16 79.7059 11.16 79.7072C11.16 79.7084 11.16 79.7097 11.16 79.7109C11.16 79.7121 11.16 79.7134 11.16 79.7146C11.16 79.7158 11.16 79.7171 11.16 79.7183C11.16 79.7196 11.16 79.7208 11.16 79.722C11.16 79.7233 11.16 79.7245 11.16 79.7257C11.16 79.727 11.16 79.7282 11.16 79.7294C11.16 79.7307 11.16 79.7319 11.16 79.7331C11.16 79.7344 11.16 79.7356 11.16 79.7368C11.16 79.7381 11.16 79.7393 11.16 79.7405C11.16 79.7418 11.16 79.743 11.16 79.7442C11.16 79.7455 11.16 79.7467 11.16 79.7479C11.16 79.7492 11.16 79.7504 11.16 79.7516C11.16 79.7529 11.16 79.7541 11.16 79.7553C11.16 79.7565 11.16 79.7578 11.16 79.759C11.16 79.7602 11.16 79.7615 11.16 79.7627C11.16 79.7639 11.16 79.7651 11.16 79.7664C11.16 79.7676 11.16 79.7688 11.16 79.7701C11.16 79.7713 11.16 79.7725 11.16 79.7737C11.16 79.775 11.16 79.7762 11.16 79.7774C11.16 79.7786 11.16 79.7799 11.16 79.7811C11.16 79.7823 11.16 79.7835 11.16 79.7848C11.16 79.786 11.16 79.7872 11.16 79.7884C11.16 79.7897 11.16 79.7909 11.16 79.7921C11.16 79.7933 11.16 79.7946 11.16 79.7958C11.16 79.797 11.16 79.7982 11.16 79.7994C11.16 79.8007 11.16 79.8019 11.16 79.8031C11.16 79.8043 11.16 79.8056 11.16 79.8068C11.16 79.808 11.16 79.8092 11.16 79.8104C11.16 79.8117 11.16 79.8129 11.16 79.8141C11.16 79.8153 11.16 79.8165 11.16 79.8177C11.16 79.819 11.16 79.8202 11.16 79.8214C11.16 79.8226 11.16 79.8238 11.16 79.8251C11.16 79.8263 11.16 79.8275 11.16 79.8287C11.16 79.8299 11.16 79.8311 11.16 79.8324C11.16 79.8336 11.16 79.8348 11.16 79.836C11.16 79.8372 11.16 79.8384 11.16 79.8397C11.16 79.8409 11.16 79.8421 11.16 79.8433C11.16 79.8445 11.16 79.8457 11.16 79.8469C11.16 79.8482 11.16 79.8494 11.16 79.8506C11.16 79.8518 11.16 79.853 11.16 79.8542C11.16 79.8554 11.16 79.8566 11.16 79.8578C11.16 79.8591 11.16 79.8603 11.16 79.8615C11.16 79.8627 11.16 79.8639 11.16 79.8651C11.16 79.8663 11.16 79.8675 11.16 79.8687C11.16 79.87 11.16 79.8712 11.16 79.8724C11.16 79.8736 11.16 79.8748 11.16 79.876C11.16 79.8772 11.16 79.8784 11.16 79.8796C11.16 79.8808 11.16 79.882 11.16 79.8832C11.16 79.8845 11.16 79.8857 11.16 79.8869C11.16 79.8881 11.16 79.8893 11.16 79.8905C11.16 79.8917 11.16 79.8929 11.16 79.8941C11.16 79.8953 11.16 79.8965 11.16 79.8977C11.16 79.8989 11.16 79.9001 11.16 79.9013C11.16 79.9025 11.16 79.9037 11.16 79.9049C11.16 79.9061 11.16 79.9073 11.16 79.9085C11.16 79.9097 11.16 79.9109 11.16 79.9122C11.16 79.9134 11.16 79.9146 11.16 79.9158C11.16 79.917 11.16 79.9182 11.16 79.9194C11.16 79.9206 11.16 79.9218 11.16 79.923C11.16 79.9242 11.16 79.9254 11.16 79.9266C11.16 79.9278 11.16 79.929 11.16 79.9302C11.16 79.9314 11.16 79.9326 11.16 79.9337C11.16 79.9349 11.16 79.9361 11.16 79.9373C11.16 79.9385 11.16 79.9397 11.16 79.9409C11.16 79.9421 11.16 79.9433 11.16 79.9445C11.16 79.9457 11.16 79.9469 11.16 79.9481C11.16 79.9493 11.16 79.9505 11.16 79.9517C11.16 79.9529 11.16 79.9541 11.16 79.9553C11.16 79.9565 11.16 79.9577 11.16 79.9589C11.16 79.9601 11.16 79.9612 11.16 79.9624C11.16 79.9636 11.16 79.9648 11.16 79.966C11.16 79.9672 11.16 79.9684 11.16 79.9696C11.16 79.9708 11.16 79.972 11.16 79.9732C11.16 79.9744 11.16 79.9755 11.16 79.9767C11.16 79.9779 11.16 79.9791 11.16 79.9803C11.16 79.9815 11.16 79.9827 11.16 79.9839C11.16 79.9851 11.16 79.9862 11.16 79.9874C11.16 79.9886 11.16 79.9898 11.16 79.991C11.16 79.9922 11.16 79.9934 11.16 79.9946C11.16 79.9957 11.16 79.9969 11.16 79.9981C11.16 79.9993 11.16 80.0005 11.16 80.0017C11.16 80.0029 11.16 80.004 11.16 80.0052C11.16 80.0064 11.16 80.0076 11.16 80.0088C11.16 80.01 11.16 80.0112 11.16 80.0123C11.16 80.0135 11.16 80.0147 11.16 80.0159C11.16 80.0171 11.16 80.0183 11.16 80.0194C11.16 80.0206 11.16 80.0218 11.16 80.023C11.16 80.0242 11.16 80.0253 11.16 80.0265C11.16 80.0277 11.16 80.0289 11.16 80.0301C11.16 80.0312 11.16 80.0324 11.16 80.0336C11.16 80.0348 11.16 80.036 11.16 80.0371C11.16 80.0383 11.16 80.0395 11.16 80.0407C11.16 80.0419 11.16 80.043 11.16 80.0442C11.16 80.0454 11.16 80.0466 11.16 80.0477C11.16 80.0489 11.16 80.0501 11.16 80.0513C11.16 80.0525 11.16 80.0536 11.16 80.0548C11.16 80.056 11.16 80.0572 11.16 80.0583C11.16 80.0595 11.16 80.0607 11.16 80.0619C11.16 80.063 11.16 80.0642 11.16 80.0654C11.16 80.0666 11.16 80.0677 11.16 80.0689C11.16 80.0701 11.16 80.0712 11.16 80.0724C11.16 80.0736 11.16 80.0748 11.16 80.0759C11.16 80.0771 11.16 80.0783 11.16 80.0795C11.16 80.0806 11.16 80.0818 11.16 80.083C11.16 80.0841 11.16 80.0853 11.16 80.0865C11.16 80.0876 11.16 80.0888 11.16 80.09C11.16 80.0912 11.16 80.0923 11.16 80.0935C11.16 80.0947 11.16 80.0958 11.16 80.097C11.16 80.0982 11.16 80.0993 11.16 80.1005C11.16 80.1017 11.16 80.1028 11.16 80.104C11.16 80.1052 11.16 80.1063 11.16 80.1075C11.16 80.1087 11.16 80.1098 11.16 80.111C11.16 80.1122 11.16 80.1133 11.16 80.1145C11.16 80.1157 11.16 80.1168 11.16 80.118C11.16 80.1191 11.16 80.1203 11.16 80.1215C11.16 80.1226 11.16 80.1238 11.16 80.125C11.16 80.1261 11.16 80.1273 11.16 80.1285C11.16 80.1296 11.16 80.1308 11.16 80.1319C11.16 80.1331 11.16 80.1343 11.16 80.1354C11.16 80.1366 11.16 80.1377 11.16 80.1389C11.16 80.1401 11.16 80.1412 11.16 80.1424C11.16 80.1435 11.16 80.1447 11.16 80.1459C11.16 80.147 11.16 80.1482 11.16 80.1493C11.16 80.1505 11.16 80.1517 11.16 80.1528C11.16 80.154 11.16 80.1551 11.16 80.1563C11.16 80.1574 11.16 80.1586 11.16 80.1597C11.16 80.1609 11.16 80.1621 11.16 80.1632C11.16 80.1644 11.16 80.1655 11.16 80.1667C11.16 80.1678 11.16 80.169 11.16 80.1701C11.16 80.1713 11.16 80.1725 11.16 80.1736C11.16 80.1748 11.16 80.1759 11.16 80.1771C11.16 80.1782 11.16 80.1794 11.16 80.1805C11.16 80.1817 11.16 80.1828 11.16 80.184C11.16 80.1851 11.16 80.1863 11.16 80.1874C11.16 80.1886 11.16 80.1897 11.16 80.1909C11.16 80.192 11.16 80.1932 11.16 80.1943C11.16 80.1955 11.16 80.1966 11.16 80.1978C11.16 80.1989 11.16 80.2001 11.16 80.2012C11.16 80.2024 11.16 80.2035 11.16 80.2047C11.16 80.2058 11.16 80.207 11.16 80.2081C11.16 80.2093 11.16 80.2104 11.16 80.2116C11.16 80.2127 11.16 80.2139 11.16 80.215C11.16 80.2161 11.16 80.2173 11.16 80.2184C11.16 80.2196 11.16 80.2207 11.16 80.2219C11.16 80.223 11.16 80.2242 11.16 80.2253C11.16 80.2264 11.16 80.2276 11.16 80.2287C11.16 80.2299 11.16 80.231 11.16 80.2322C11.16 80.2333 11.16 80.2344 11.16 80.2356C11.16 80.2367 11.16 80.2379 11.16 80.239C11.16 80.2402 11.16 80.2413 11.16 80.2424C11.16 80.2436 11.16 80.2447 11.16 80.2459C11.16 80.247 11.16 80.2481 11.16 80.2493C11.16 80.2504 11.16 80.2516 11.16 80.2527C11.16 80.2538 11.16 80.255 11.16 80.2561C11.16 80.2572 11.16 80.2584 11.16 80.2595C11.16 80.2607 11.16 80.2618 11.16 80.2629C11.16 80.2641 11.16 80.2652 11.16 80.2663C11.16 80.2675 11.16 80.2686 11.16 80.2697C11.16 80.2709 11.16 80.272 11.16 80.2732C11.16 80.2743 11.16 80.2754 11.16 80.2766C11.16 80.2777 11.16 80.2788 11.16 80.28C11.16 80.2811 11.16 80.2822 11.16 80.2834C11.16 80.2845 11.16 80.2856 11.16 80.2868C11.16 80.2879 11.16 80.289 11.16 80.2902C11.16 80.2913 11.16 80.2924 11.16 80.2935C11.16 80.2947 11.16 80.2958 11.16 80.2969C11.16 80.2981 11.16 80.2992 11.16 80.3003C11.16 80.3015 11.16 80.3026 11.16 80.3037C11.16 80.3048 11.16 80.306 11.16 80.3071C11.16 80.3082 11.16 80.3094 11.16 80.3105C11.16 80.3116 11.16 80.3127 11.16 80.3139C11.16 80.315 11.16 80.3161 11.16 80.3172C11.16 80.3184 11.16 80.3195 11.16 80.3206C11.16 80.3217 11.16 80.3229 11.16 80.324C11.16 80.3251 11.16 80.3262 11.16 80.3274C11.16 80.3285 11.16 80.3296 11.16 80.3307C11.16 80.3319 11.16 80.333 11.16 80.3341C11.16 80.3352 11.16 80.3364 11.16 80.3375C11.16 80.3386 11.16 80.3397 11.16 80.3408C11.16 80.342 11.16 80.3431 11.16 80.3442C11.16 80.3453 11.16 80.3465 11.16 80.3476C11.16 80.3487 11.16 80.3498 11.16 80.3509C11.16 80.3521 11.16 80.3532 11.16 80.3543C11.16 80.3554 11.16 80.3565 11.16 80.3577C11.16 80.3588 11.16 80.3599 11.16 80.361C11.16 80.3621 11.16 80.3632 11.16 80.3644C11.16 80.3655 11.16 80.3666 11.16 80.3677C11.16 80.3688 11.16 80.3699 11.16 80.3711C11.16 80.3722 11.16 80.3733 11.16 80.3744C11.16 80.3755 11.16 80.3766 11.16 80.3777C11.16 80.3789 11.16 80.38 11.16 80.3811C11.16 80.3822 11.16 80.3833 11.16 80.3844C11.16 80.3855 11.16 80.3867 11.16 80.3878C11.16 80.3889 11.16 80.39 11.16 80.3911C11.16 80.3922 11.16 80.3933 11.16 80.3944C11.16 80.3956 11.16 80.3967 11.16 80.3978C11.16 80.3989 11.16 80.4 11.16 80.4011C11.16 80.4022 11.16 80.4033 11.16 80.4044C11.16 80.4055 11.16 80.4067 11.16 80.4078C11.16 80.4089 11.16 80.41 11.16 80.4111C11.16 80.4122 11.16 80.4133 11.16 80.4144C11.16 80.4155 11.16 80.4166 11.16 80.4177C11.16 80.4188 11.16 80.4199 11.16 80.4211C11.16 80.4222 11.16 80.4233 11.16 80.4244C11.16 80.4255 11.16 80.4266 11.16 80.4277C11.16 80.4288 11.16 80.4299 11.16 80.431C11.16 80.4321 11.16 80.4332 11.16 80.4343C11.16 80.4354 11.16 80.4365 11.16 80.4376C11.16 80.4387 11.16 80.4398 11.16 80.4409C11.16 80.442 11.16 80.4431 11.16 80.4442C11.16 80.4453 11.16 80.4464 11.16 80.4475C11.16 80.4486 11.16 80.4497 11.16 80.4508C11.16 80.4519 11.16 80.453 11.16 80.4541C11.16 80.4552 11.16 80.4563 11.16 80.4574C11.16 80.4585 11.16 80.4596 11.16 80.4607C11.16 80.4618 11.16 80.4629 11.16 80.464C11.16 80.4651 11.16 80.4662 11.16 80.4673C11.16 80.4684 11.16 80.4695 11.16 80.4706C11.16 80.4717 11.16 80.4728 11.16 80.4739C11.16 80.475 11.16 80.4761 11.16 80.4772C11.16 80.4783 11.16 80.4794 11.16 80.4805C11.16 80.4816 11.16 80.4827 11.16 80.4837C11.16 80.4848 11.16 80.4859 11.16 80.487C11.16 80.4881 11.16 80.4892 11.16 80.4903C11.16 80.4914 11.16 80.4925 11.16 80.4936C11.16 80.4947 11.16 80.4958 11.16 80.4969C11.16 80.4979 11.16 80.499 11.16 80.5001C11.16 80.5012 11.16 80.5023 11.16 80.5034C11.16 80.5045 11.16 80.5056 11.16 80.5067C11.16 80.5078 11.16 80.5088 11.16 80.5099C11.16 80.511 11.16 80.5121 11.16 80.5132C11.16 80.5143 11.16 80.5154 11.16 80.5165C11.16 80.5176 11.16 80.5186 11.16 80.5197C11.16 80.5208 11.16 80.5219 11.16 80.523C11.16 80.5241 11.16 80.5252 11.16 80.5262C11.16 80.5273 11.16 80.5284 11.16 80.5295C11.16 80.5306 11.16 80.5317 11.16 80.5327C11.16 80.5338 11.16 80.5349 11.16 80.536C11.16 80.5371 11.16 80.5382 11.16 80.5392C11.16 80.5403 11.16 80.5414 11.16 80.5425C11.16 80.5436 11.16 80.5447 11.16 80.5457C11.16 80.5468 11.16 80.5479 11.16 80.549C11.16 80.5501 11.16 80.5511 11.16 80.5522C11.16 80.5533 11.16 80.5544 11.16 80.5555C11.16 80.5565 11.16 80.5576 11.16 80.5587C11.16 80.5598 11.16 80.5609 11.16 80.5619C11.16 80.563 11.16 80.5641 11.16 80.5652C11.16 80.5662 11.16 80.5673 11.16 80.5684C11.16 80.5695 11.16 80.5706 11.16 80.5716C11.16 80.5727 11.16 80.5738 11.16 80.5749C11.16 80.5759 11.16 80.577 11.16 80.5781C11.16 80.5792 11.16 80.5802 11.16 80.5813C11.16 80.5824 11.16 80.5835 11.16 80.5845C11.16 80.5856 11.16 80.5867 11.16 80.5877C11.16 80.5888 11.16 80.5899 11.16 80.591C11.16 80.592 11.16 80.5931 11.16 80.5942C11.16 80.5953 11.16 80.5963 11.16 80.5974C11.16 80.5985 11.16 80.5995 11.16 80.6006C11.16 80.6017 11.16 80.6027 11.16 80.6038C11.16 80.6049 11.16 80.606 11.16 80.607C11.16 80.6081 11.16 80.6092 11.16 80.6102C11.16 80.6113 11.16 80.6124 11.16 80.6134C11.16 80.6145 11.16 80.6156 11.16 80.6166C11.16 80.6177 11.16 80.6188 11.16 80.6198C11.16 80.6209 11.16 80.622 11.16 80.623C11.16 80.6241 11.16 80.6252 11.16 80.6262C11.16 80.6273 11.16 80.6284 11.16 80.6294C11.16 80.6305 11.16 80.6316 11.16 80.6326C11.16 80.6337 11.16 80.6347 11.16 80.6358C11.16 80.6369 11.16 80.6379 11.16 80.639C11.16 80.6401 11.16 80.6411 11.16 80.6422C11.16 80.6432 11.16 80.6443 11.16 80.6454C11.16 80.6464 11.16 80.6475 11.16 80.6486C11.16 80.6496 11.16 80.6507 11.16 80.6517C11.16 80.6528 11.16 80.6539 11.16 80.6549C11.16 80.656 11.16 80.657 11.16 80.6581C11.16 80.6591 11.16 80.6602 11.16 80.6613C11.16 80.6623 11.16 80.6634 11.16 80.6644C11.16 80.6655 11.16 80.6666 11.16 80.6676C11.16 80.6687 11.16 80.6697 11.16 80.6708C11.16 80.6718 11.16 80.6729 11.16 80.6739C11.16 80.675 11.16 80.6761 11.16 80.6771C11.16 80.6782 11.16 80.6792 11.16 80.6803C11.16 80.6813 11.16 80.6824 11.16 80.6834C11.16 80.6845 11.16 80.6855 11.16 80.6866C11.16 80.6876 11.16 80.6887 11.16 80.6897C11.16 80.6908 11.16 80.6919 11.16 80.6929C11.16 80.694 11.16 80.695 11.16 80.6961C11.16 80.6971 11.16 80.6982 11.16 80.6992C11.16 80.7003 11.16 80.7013 11.16 80.7024C11.16 80.7034 11.16 80.7045 11.16 80.7055C11.16 80.7066 11.16 80.7076 11.16 80.7087C11.16 80.7097 11.16 80.7107 11.16 80.7118C11.16 80.7128 11.16 80.7139 11.16 80.7149C11.16 80.716 11.16 80.717 11.16 80.7181C11.16 80.7191 11.16 80.7202 11.16 80.7212C11.16 80.7223 11.16 80.7233 11.16 80.7243C11.16 80.7254 11.16 80.7264 11.16 80.7275C11.16 80.7285 11.16 80.7296 11.16 80.7306C11.16 80.7317 11.16 80.7327 11.16 80.7337C11.16 80.7348 11.16 80.7358 11.16 80.7369C11.16 80.7379 11.16 80.739 11.16 80.74C11.16 80.741 11.16 80.7421 11.16 80.7431C11.16 80.7442 11.16 80.7452 11.16 80.7462C11.16 80.7473 11.16 80.7483 11.16 80.7494C11.16 80.7504 11.16 80.7514 11.16 80.7525C11.16 80.7535 11.16 80.7546 11.16 80.7556C11.16 80.7566 11.16 80.7577 11.16 80.7587C11.16 80.7598 11.16 80.7608 11.16 80.7618C11.16 80.7629 11.16 80.7639 11.16 80.7649C11.16 80.766 11.16 80.767 11.16 80.768C11.16 80.7691 11.16 80.7701 11.16 80.7712C11.16 80.7722 11.16 80.7732 11.16 80.7743C11.16 80.7753 11.16 80.7763 11.16 80.7774C11.16 80.7784 11.16 80.7794 11.16 80.7805C11.16 80.7815 11.16 80.7825 11.16 80.7836C11.16 80.7846 11.16 80.7856 11.16 80.7867C11.16 80.7877 11.16 80.7887 11.16 80.7897C11.16 80.7908 11.16 80.7918 11.16 80.7928C11.16 80.7939 11.16 80.7949 11.16 80.7959C11.16 80.797 11.16 80.798 11.16 80.799C11.16 80.8001 11.16 80.8011 11.16 80.8021C11.16 80.8031 11.16 80.8042 11.16 80.8052C11.16 80.8062 11.16 80.8072 11.16 80.8083C11.16 80.8093 11.16 80.8103 11.16 80.8114C11.16 80.8124 11.16 80.8134 11.16 80.8144C11.16 80.8155 11.16 80.8165 11.16 80.8175C11.16 80.8185 11.16 80.8196 11.16 80.8206C11.16 80.8216 11.16 80.8226 11.16 80.8237C11.16 80.8247 11.16 80.8257 11.16 80.8267C11.16 80.8278 11.16 80.8288 11.16 80.8298C11.16 80.8308 11.16 80.8318 11.16 80.8329C11.16 80.8339 11.16 80.8349 11.16 80.8359C11.16 80.837 11.16 80.838 11.16 80.839C11.16 80.84 11.16 80.841 11.16 80.8421C11.16 80.8431 11.16 80.8441 11.16 80.8451C11.16 80.8461 11.16 80.8472 11.16 80.8482C11.16 80.8492 11.16 80.8502 11.16 80.8512C11.16 80.8523 11.16 80.8533 11.16 80.8543C11.16 80.8553 11.16 80.8563 11.16 80.8573C11.16 80.8584 11.16 80.8594 11.16 80.8604C11.16 80.8614 11.16 80.8624 11.16 80.8634C11.16 80.8645 11.16 80.8655 11.16 80.8665C11.16 80.8675 11.16 80.8685 11.16 80.8695C11.16 80.8705 11.16 80.8716 11.16 80.8726C11.16 80.8736 11.16 80.8746 11.16 80.8756C11.16 80.8766 11.16 80.8776 11.16 80.8786C11.16 80.8797 11.16 80.8807 11.16 80.8817C11.16 80.8827 11.16 80.8837 11.16 80.8847C11.16 80.8857 11.16 80.8867 11.16 80.8877C11.16 80.8888 11.16 80.8898 11.16 80.8908C11.16 80.8918 11.16 80.8928 11.16 80.8938C11.16 80.8948 11.16 80.8958 11.16 80.8968C11.16 80.8978 11.16 80.8989 11.16 80.8999C11.16 80.9009 11.16 80.9019 11.16 80.9029C11.16 80.9039 11.16 80.9049 11.16 80.9059C11.16 80.9069 11.16 80.9079 11.16 80.9089C11.16 80.9099 11.16 80.9109 11.16 80.9119C11.16 80.9129 11.16 80.9139 11.16 80.915C11.16 80.916 11.16 80.917 11.16 80.918C11.16 80.919 11.16 80.92 11.16 80.921C11.16 80.922 11.16 80.923 11.16 80.924C11.16 80.925 11.16 80.926 11.16 80.927C11.16 80.928 11.16 80.929 11.16 80.93C11.16 80.931 11.16 80.932 11.16 80.933C11.16 80.934 11.16 80.935 11.16 80.936H13.16ZM13.1523 79.268C13.2479 78.503 13.2479 77.737 13.1523 76.972L11.1677 77.22C11.2428 77.8203 11.2428 78.4197 11.1677 79.02L13.1523 79.268ZM13.1582 77.0364C12.4736 65.5688 11.1476 53.0816 9.18157 39.5759L7.20243 39.864C9.16176 53.3238 10.4811 65.7539 11.1618 77.1556L13.1582 77.0364ZM9.18296 39.5858C8.07351 31.393 7.21866 25.4509 6.61901 21.7673L4.64499 22.0887C5.24001 25.7438 6.09183 31.663 7.20105 39.8542L9.18296 39.5858ZM6.61976 21.772C6.1089 18.5366 5.864 16.2126 5.864 14.76H3.864C3.864 16.3794 4.1311 18.8341 4.64424 22.084L6.61976 21.772ZM5.864 14.76C5.864 11.9662 6.61836 9.5246 8.11381 7.39949L6.47819 6.2485C4.73097 8.7314 3.864 11.5804 3.864 14.76H5.864ZM8.12004 7.39053C9.01217 6.09289 10.0214 4.96388 11.1468 3.99926L9.84521 2.48074C8.58128 3.56411 7.45717 4.82443 6.47196 6.25747L8.12004 7.39053ZM11.1207 4.02087C12.2888 3.08642 13.312 2.70399 14.208 2.70399V0.703995C12.7147 0.703995 11.2632 1.34557 9.8713 2.45913L11.1207 4.02087ZM14.208 2.70399C14.8659 2.70399 15.4359 2.98051 15.9593 3.70016L17.5767 2.52382C16.7348 1.36614 15.5981 0.703995 14.208 0.703995V2.70399ZM15.9786 3.72593C16.4454 4.32603 16.8267 5.22492 17.0651 6.49628L19.0309 6.12771C18.7573 4.6684 18.2853 3.43396 17.5574 2.49805L15.9786 3.72593ZM17.0651 6.49629C17.3109 7.80697 17.5209 9.64093 17.6905 12.0152L19.6855 11.8727C19.5137 9.46839 19.2971 7.54768 19.0309 6.12771L17.0651 6.49629ZM17.688 11.944C17.688 13.1046 17.7773 14.3039 17.9541 15.5414L19.9339 15.2586C19.7694 14.1067 19.688 13.0021 19.688 11.944H17.688ZM17.9571 15.5611C18.6422 19.7576 19.6258 25.1027 20.9069 31.5936L22.8691 31.2064C21.5902 24.7266 20.6111 19.4051 19.9309 15.2389L17.9571 15.5611ZM20.9104 31.6102C22.6138 39.5315 23.8024 46.1152 24.4802 51.368L26.4638 51.112C25.7762 45.7835 24.5755 39.1405 22.8656 31.1897L20.9104 31.6102ZM26.4685 51.323C26.6409 49.2549 26.8122 46.2524 26.9831 42.3234L24.9849 42.2366C24.8144 46.1583 24.6444 49.1291 24.4755 51.157L26.4685 51.323ZM26.9834 42.3151C27.1536 37.4646 27.4086 33.2614 27.7475 29.7028L25.7565 29.5132C25.4128 33.1226 25.1558 37.3674 24.9846 42.2449L26.9834 42.3151ZM27.7475 29.7028C28.085 26.1588 28.6335 22.6574 29.3927 19.1984L27.4393 18.7696C26.6626 22.3079 26.1016 25.8892 25.7565 29.5132L27.7475 29.7028ZM29.4024 19.1484C29.6413 17.715 30.294 15.5728 31.3981 12.6851L29.5299 11.9709C28.4154 14.8859 27.7027 17.181 27.4296 18.8196L29.4024 19.1484ZM31.3925 12.6994C32.5623 9.77486 33.9349 7.19977 35.5058 4.96749L33.8702 3.8165C32.1984 6.19222 30.755 8.9078 29.5355 11.9566L31.3925 12.6994ZM35.5017 4.97324C37.1414 2.67772 38.6299 1.808 39.936 1.808V-0.192001C37.6581 -0.192001 35.6479 1.32761 33.8743 3.81076L35.5017 4.97324ZM39.936 1.808C40.4697 1.808 41.0479 1.98314 41.6853 2.40805L42.7947 0.743945C41.8961 0.144859 40.9383 -0.192001 39.936 -0.192001V1.808ZM75.056 61.608L75.9845 61.9794L75.9872 61.9724L75.056 61.608ZM74.032 64.168L73.1035 63.7966L72.8353 64.4672L73.3875 64.9326L74.032 64.168ZM82.992 71.72L82.3475 72.4846L84.6798 74.4504L83.9641 71.4854L82.992 71.72ZM82.096 68.008L83.0681 67.7734L83.0661 67.7655L82.096 68.008ZM78.512 52.776L79.4864 52.5511L78.7592 49.4L77.5808 52.4116L78.512 52.776ZM89.648 24.232L88.6581 24.3734L88.6593 24.3822L88.6607 24.3909L89.648 24.232ZM94.128 46.888L93.1541 47.1152L93.1572 47.128L94.128 46.888ZM100.912 73.128L101.879 72.8731L101.878 72.8698L100.912 73.128ZM105.776 91.816L104.806 92.0585L104.815 92.0958L104.827 92.1322L105.776 91.816ZM102.448 98.344L102.981 99.1902L102.992 99.1833L103.003 99.1761L102.448 98.344ZM90.544 98.856L89.8137 99.5392L89.8251 99.5513L89.8369 99.5631L90.544 98.856ZM82.736 91.304L82.0775 92.0566L82.0775 92.0566L82.736 91.304ZM71.984 82.472L71.3508 83.246L71.3578 83.2517L71.3648 83.2573L71.984 82.472ZM67.76 79.016L68.3932 78.242L67.3977 77.4275L66.8538 78.5931L67.76 79.016ZM59.44 96.04L58.5582 95.5683L58.5454 95.5924L58.5338 95.6171L59.44 96.04ZM54.704 99.624L55.0864 100.548L55.094 100.545L55.1016 100.542L54.704 99.624ZM44.592 97.32L45.5111 97.7139L45.515 97.7048L45.5187 97.6957L44.592 97.32ZM53.68 75.56L54.5997 75.9528L54.6047 75.9407L53.68 75.56ZM56.368 69.032L57.2927 69.4127L57.5465 68.7963L57.0751 68.3249L56.368 69.032ZM53.168 65.832L53.8751 65.1249L53.8751 65.1249L53.168 65.832ZM55.088 59.688L55.6513 60.5142L55.6639 60.5057L55.6762 60.4967L55.088 59.688ZM61.36 57L61.5421 57.9833L62.0743 57.8847L62.2828 57.3852L61.36 57ZM72.88 27.048L73.823 27.3808L73.8331 27.3521L73.8415 27.3227L72.88 27.048ZM76.08 23.976L76.5099 24.8789L76.5186 24.8747L76.5272 24.8704L76.08 23.976ZM81.968 22.184L82.092 23.1763L82.1724 23.1662L82.2502 23.1434L81.968 22.184ZM74.1275 61.2366L73.1035 63.7966L74.9605 64.5394L75.9845 61.9794L74.1275 61.2366ZM73.3875 64.9326L82.3475 72.4846L83.6365 70.9554L74.6765 63.4034L73.3875 64.9326ZM83.9641 71.4854L83.0681 67.7734L81.1239 68.2426L82.0199 71.9546L83.9641 71.4854ZM83.0661 67.7655C82.4714 65.3866 81.2788 60.3184 79.4864 52.5511L77.5376 53.0009C79.3292 60.7642 80.5259 65.8508 81.1259 68.2505L83.0661 67.7655ZM77.5808 52.4116L74.1248 61.2436L75.9872 61.9724L79.4432 53.1404L77.5808 52.4116ZM88.6607 24.3909C89.8592 31.8389 91.3571 39.4137 93.1542 47.1152L95.1018 46.6608C93.3149 39.0023 91.8261 31.4731 90.6353 24.0731L88.6607 24.3909ZM93.1572 47.128C95.0364 54.7302 97.2994 63.4832 99.9459 73.3862L101.878 72.8698C99.2339 62.9755 96.9742 54.2351 95.0988 46.648L93.1572 47.128ZM99.945 73.3829C102.42 82.7707 104.04 88.9938 104.806 92.0585L106.746 91.5735C105.976 88.4942 104.353 82.2586 101.879 72.8731L99.945 73.3829ZM104.827 92.1322C104.861 92.2319 104.904 92.4852 104.904 92.968H106.904C106.904 92.4268 106.862 91.9121 106.725 91.4998L104.827 92.1322ZM104.904 92.968C104.904 94.5699 104.027 96.0894 101.893 97.5119L103.003 99.1761C105.477 97.5266 106.904 95.4621 106.904 92.968H104.904ZM101.915 97.4978C99.7542 98.8584 97.5475 99.52 95.28 99.52V101.52C97.9619 101.52 100.534 100.731 102.981 99.1902L101.915 97.4978ZM95.28 99.52C93.4129 99.52 92.1207 99.0185 91.2511 98.1489L89.8369 99.5631C91.186 100.912 93.0511 101.52 95.28 101.52V99.52ZM91.2743 98.1728C88.7768 95.5031 86.1502 92.9626 83.3945 90.5514L82.0775 92.0566C84.7831 94.424 87.3619 96.9182 89.8137 99.5392L91.2743 98.1728ZM83.3945 90.5514C80.646 88.1465 77.0474 85.1908 72.6032 81.6867L71.3648 83.2573C75.7953 86.7505 79.3647 89.6828 82.0775 92.0566L83.3945 90.5514ZM72.6172 81.698L68.3932 78.242L67.1268 79.79L71.3508 83.246L72.6172 81.698ZM66.8538 78.5931C63.2714 86.2698 60.5075 91.9241 58.5582 95.5683L60.3218 96.5117C62.2979 92.8172 65.0806 87.1222 68.6662 79.4389L66.8538 78.5931ZM58.5338 95.6171C58.1021 96.5422 56.83 97.6129 54.3064 98.7064L55.1016 100.542C57.698 99.4164 59.5832 98.0978 60.3462 96.4629L58.5338 95.6171ZM54.3216 98.7C51.9384 99.6862 49.7653 100.16 47.792 100.16V102.16C50.0854 102.16 52.5203 101.61 55.0864 100.548L54.3216 98.7ZM47.792 100.16C46.6724 100.16 46.0048 99.9743 45.6448 99.7428C45.3604 99.56 45.208 99.3168 45.208 98.856H43.208C43.208 99.9312 43.6529 100.84 44.5632 101.425C45.3979 101.962 46.5223 102.16 47.792 102.16V100.16ZM45.208 98.856C45.208 98.6166 45.2833 98.2455 45.5111 97.7139L43.6729 96.9261C43.3887 97.5892 43.208 98.242 43.208 98.856H45.208ZM45.5187 97.6957C48.0759 91.3882 51.1027 84.1407 54.5996 75.9528L52.7604 75.1672C49.26 83.3633 46.2282 90.6225 43.6653 96.9443L45.5187 97.6957ZM54.6047 75.9407L57.2927 69.4127L55.4433 68.6512L52.7553 75.1792L54.6047 75.9407ZM57.0751 68.3249C56.9921 68.2419 56.9592 68.2089 56.8782 68.128C56.8379 68.0877 56.8219 68.0717 56.7821 68.0319C56.7504 68.0002 56.7189 67.9686 56.6876 67.9374C56.641 67.8908 56.6874 67.9372 56.6409 67.8907C56.6254 67.8752 56.61 67.8598 56.5946 67.8444C56.5639 67.8137 56.5335 67.7832 56.5032 67.753C56.4873 67.7371 56.3389 67.5887 56.3251 67.5749C56.3176 67.5674 56.2454 67.4951 56.2384 67.4882C56.2205 67.4703 56.2134 67.4632 56.1956 67.4454C56.153 67.4028 56.1957 67.4455 56.1532 67.403C56.1251 67.3749 56.0972 67.347 56.0696 67.3194C56.0352 67.285 56.0215 67.2713 55.9876 67.2374C55.9202 67.17 55.8936 67.1434 55.8282 67.078C55.8215 67.0713 55.7571 67.0069 55.7509 67.0007C55.735 66.9847 55.7286 66.9784 55.7128 66.9626C55.7002 66.95 55.6876 66.9374 55.6751 66.9249C55.672 66.9218 55.6689 66.9186 55.6657 66.9155C55.6626 66.9124 55.6595 66.9093 55.6564 66.9062C55.6548 66.9046 55.6393 66.8891 55.6378 66.8876C55.6347 66.8844 55.6039 66.8537 55.6009 66.8507C55.5704 66.8201 55.5582 66.808 55.5282 66.778C55.5155 66.7652 55.3983 66.6481 55.3876 66.6374C55.2742 66.524 55.2302 66.48 55.1251 66.3749C54.9215 66.1713 54.8454 66.0952 54.6751 65.9249C54.4084 65.6582 54.2084 65.4582 54.0751 65.3249C54.0251 65.2749 53.9418 65.1916 53.9251 65.1749C53.9071 65.1568 53.8973 65.1471 53.8876 65.1374C53.8845 65.1343 53.8793 65.1291 53.8782 65.128C53.8769 65.1267 53.8767 65.1265 53.8759 65.1257C53.8758 65.1256 53.8758 65.1255 53.8757 65.1255C53.8756 65.1254 53.8756 65.1254 53.8755 65.1253C53.8754 65.1252 53.8754 65.1252 53.8753 65.1251C53.8752 65.125 53.8752 65.125 53.8752 65.1249C53.8751 65.1249 53.8751 65.1249 53.8751 65.1249C53.8751 65.1249 53.8751 65.1249 53.168 65.832C52.4609 66.5391 52.4609 66.5391 52.4609 66.5391C52.4609 66.5391 52.4609 66.5391 52.4609 66.5392C52.461 66.5392 52.461 66.5392 52.461 66.5392C52.461 66.5392 52.4611 66.5393 52.4611 66.5393C52.4611 66.5393 52.4612 66.5394 52.4612 66.5394C52.4612 66.5394 52.4613 66.5395 52.4613 66.5395C52.462 66.5402 52.461 66.5392 52.4617 66.5399C52.4621 66.5403 52.4621 66.5403 52.4627 66.5409C52.4636 66.5418 52.463 66.5412 52.464 66.5422C52.4666 66.5448 52.4648 66.543 52.4679 66.5461C52.4714 66.5497 52.4668 66.545 52.4705 66.5487C52.4716 66.5498 52.4707 66.5489 52.4719 66.5501C52.4721 66.5503 52.4724 66.5506 52.4726 66.5508C52.4729 66.5511 52.4731 66.5513 52.4734 66.5516C52.4817 66.5599 52.4786 66.5568 52.489 66.5672C52.4994 66.5776 52.4882 66.5664 52.4992 66.5774C52.5001 66.5783 52.5038 66.582 52.5048 66.583C52.511 66.5892 52.5046 66.5829 52.5109 66.5891C52.5192 66.5974 52.5153 66.5935 52.5242 66.6024C52.5253 66.6035 52.5302 66.6084 52.5314 66.6096C52.5351 66.6133 52.5314 66.6096 52.5352 66.6134C52.5358 66.614 52.5364 66.6146 52.5371 66.6153C52.5377 66.6159 52.5384 66.6166 52.539 66.6172C52.5651 66.6433 52.5453 66.6235 52.5734 66.6516C52.6005 66.6787 52.5849 66.6631 52.614 66.6922C52.6149 66.6931 52.6158 66.6941 52.6168 66.695C52.6177 66.6959 52.6186 66.6968 52.6195 66.6977C52.6261 66.7043 52.6185 66.6968 52.6252 66.7034C52.6327 66.7109 52.629 66.7072 52.6367 66.7149C52.6487 66.7269 52.6484 66.7266 52.6609 66.7391C52.7025 66.7808 52.6703 66.7485 52.714 66.7922C52.764 66.8422 52.7213 66.7995 52.7734 66.8516C52.7786 66.8568 52.7997 66.8779 52.8054 66.8836C52.8278 66.906 52.8161 66.8943 52.839 66.9172C52.8405 66.9187 52.8419 66.9201 52.8433 66.9215C52.8448 66.923 52.8462 66.9244 52.8477 66.9259C52.8593 66.9375 52.8448 66.923 52.8564 66.9346C52.8579 66.9361 52.8593 66.9375 52.8608 66.939C52.8623 66.9405 52.8638 66.942 52.8652 66.9434C52.8667 66.9449 52.8682 66.9464 52.8697 66.9479C52.8712 66.9494 52.8727 66.9509 52.8742 66.9524C52.8921 66.9704 52.8924 66.9706 52.9109 66.9891C52.9494 67.0276 52.9101 66.9883 52.9492 67.0274C52.972 67.0502 52.946 67.0242 52.9689 67.0471C52.9722 67.0504 52.9856 67.0638 52.989 67.0672C53.0432 67.1214 52.9757 67.0539 53.0304 67.1086C53.0445 67.1227 53.0588 67.137 53.0734 67.1516C53.0734 67.1516 53.1619 67.2401 53.164 67.2422C53.2281 67.3063 53.1471 67.2253 53.2117 67.2899C53.2157 67.2939 53.2319 67.3101 53.2361 67.3143C53.2485 67.3267 53.2484 67.3266 53.2609 67.3391C53.2859 67.3641 53.2862 67.3644 53.3117 67.3899C53.3203 67.3985 53.3289 67.4071 53.3377 67.4159C53.3464 67.4246 53.342 67.4202 53.3508 67.429C53.3707 67.4489 53.3441 67.4223 53.364 67.4422C53.3817 67.4599 53.4536 67.5318 53.4734 67.5516C53.5068 67.585 53.6692 67.7474 53.7109 67.7891C53.7161 67.7943 53.737 67.8152 53.7423 67.8205C53.8063 67.8845 53.7101 67.7883 53.7742 67.8524C53.8382 67.9164 53.7745 67.8527 53.839 67.9172C53.8887 67.9669 53.8222 67.9004 53.872 67.9502C53.8969 67.9751 53.8637 67.942 53.8887 67.9669C53.8998 67.9781 53.8942 67.9724 53.9054 67.9836C53.9166 67.9948 53.9279 68.0061 53.9392 68.0174C53.962 68.0402 53.9505 68.0287 53.9734 68.0516C53.9992 68.0774 53.9648 68.043 53.9906 68.0688C53.9935 68.0717 53.9964 68.0746 53.9993 68.0775C54.0022 68.0804 54.0051 68.0833 54.008 68.0862C54.0428 68.121 54.008 68.0862 54.0429 68.1211C54.0903 68.1685 54.0661 68.1443 54.114 68.1922C54.2099 68.2881 54.1629 68.2411 54.2609 68.3391C54.3109 68.3891 54.3619 68.4401 54.414 68.4922C54.4401 68.5183 54.4075 68.4857 54.4336 68.5118C54.4599 68.5381 54.427 68.5052 54.4533 68.5315C54.4566 68.5348 54.4599 68.5381 54.4632 68.5414C54.4664 68.5447 54.4697 68.548 54.4731 68.5513C54.4797 68.5579 54.4863 68.5645 54.4929 68.5711C54.5062 68.5844 54.5196 68.5978 54.533 68.6112C54.5598 68.638 54.5263 68.6045 54.5531 68.6313C54.5565 68.6347 54.5599 68.6381 54.5632 68.6415C54.5666 68.6448 54.57 68.6482 54.5734 68.6516C54.614 68.6922 54.5735 68.6517 54.6142 68.6924C54.6176 68.6958 54.6211 68.6993 54.6245 68.7027C54.6279 68.7061 54.6313 68.7095 54.6348 68.713C54.6382 68.7164 54.6416 68.7199 54.6451 68.7233C54.6485 68.7267 54.652 68.7302 54.6554 68.7336C54.6968 68.775 54.6347 68.7129 54.6762 68.7544C54.6901 68.7683 54.6831 68.7613 54.697 68.7752C54.7005 68.7787 54.704 68.7822 54.7075 68.7857C54.711 68.7892 54.7145 68.7927 54.718 68.7962C54.739 68.8172 54.718 68.7962 54.739 68.8172C54.7461 68.8243 54.7531 68.8313 54.7602 68.8384C54.7637 68.8419 54.7672 68.8454 54.7708 68.849C54.7743 68.8525 54.7779 68.8561 54.7814 68.8596C54.8027 68.8809 54.7814 68.8596 54.8027 68.8809C54.8063 68.8845 54.8099 68.8881 54.8134 68.8917C54.817 68.8952 54.8206 68.8988 54.8242 68.9024C54.8278 68.906 54.8313 68.9096 54.8349 68.9131C54.8385 68.9167 54.8421 68.9203 54.8457 68.9239C54.8889 68.9671 54.8241 68.9023 54.8673 68.9455C54.871 68.9492 54.8746 68.9528 54.8782 68.9564C54.8818 68.96 54.8854 68.9636 54.8891 68.9673C54.8927 68.9709 54.8963 68.9745 54.9 68.9782C54.9036 68.9818 54.9072 68.9855 54.9109 68.9891C54.9145 68.9928 54.9182 68.9964 54.9218 69.0001C54.9255 69.0037 54.9292 69.0074 54.9328 69.011C54.9365 69.0147 54.9401 69.0184 54.9438 69.022C54.9475 69.0257 54.9512 69.0294 54.9548 69.033C54.9585 69.0367 54.9622 69.0404 54.9659 69.0441C54.9696 69.0478 54.9733 69.0515 54.977 69.0552C54.9807 69.0589 54.9844 69.0626 54.9881 69.0663C54.9918 69.07 54.9955 69.0737 54.9992 69.0774C55.0029 69.0811 55.0066 69.0848 55.0103 69.0885C55.014 69.0922 55.0178 69.096 55.0215 69.0997C55.0252 69.1034 55.0289 69.1072 55.0327 69.1109C55.0364 69.1146 55.0402 69.1184 55.0439 69.1221C55.0476 69.1259 55.0514 69.1296 55.0551 69.1334C55.0589 69.1371 55.0627 69.1409 55.0664 69.1446C55.1117 69.1899 55.0437 69.1219 55.089 69.1672C55.0928 69.171 55.0966 69.1748 55.1004 69.1786C55.1041 69.1824 55.1079 69.1861 55.1117 69.1899C55.1155 69.1937 55.1193 69.1975 55.1231 69.2013C55.1269 69.2051 55.1307 69.2089 55.1345 69.2127C55.1727 69.2509 55.1192 69.1974 55.1574 69.2356C55.1613 69.2395 55.1651 69.2433 55.1689 69.2471C55.1727 69.251 55.1766 69.2548 55.1804 69.2586C55.1881 69.2663 55.1958 69.274 55.2035 69.2817C55.2267 69.3049 55.2035 69.2817 55.2267 69.3049C55.2306 69.3088 55.2345 69.3127 55.2383 69.3166C55.2422 69.3204 55.2461 69.3243 55.25 69.3282C55.2578 69.336 55.2656 69.3438 55.2734 69.3516C55.3984 69.4766 55.5276 69.6058 55.6609 69.7391L57.0751 68.3249ZM53.8751 65.1249C53.4447 64.6945 53.272 64.259 53.272 63.784H51.272C51.272 64.845 51.6966 65.7748 52.4609 66.5391L53.8751 65.1249ZM53.272 63.784C53.272 62.8195 53.887 61.7172 55.6513 60.5142L54.5247 58.8618C52.5343 60.2188 51.272 61.8472 51.272 63.784H53.272ZM55.6762 60.4967C57.4317 59.22 59.3833 58.383 61.5421 57.9833L61.1779 56.0167C58.7287 56.4703 56.499 57.4253 54.4998 58.8793L55.6762 60.4967ZM62.2828 57.3852C66.3861 47.5544 70.2328 37.5529 73.823 27.3808L71.937 26.7152C68.3592 36.8524 64.5259 46.819 60.4372 56.6148L62.2828 57.3852ZM73.8415 27.3227C74.0673 26.5326 74.825 25.6812 76.5099 24.8789L75.6501 23.0731C73.751 23.9775 72.3754 25.174 71.9185 26.7733L73.8415 27.3227ZM76.5272 24.8704C78.3049 23.9816 80.1585 23.418 82.092 23.1763L81.844 21.1917C79.6815 21.462 77.6098 22.0931 75.6328 23.0816L76.5272 24.8704ZM82.2502 23.1434C83.6485 22.7321 84.7852 22.544 85.68 22.544V20.544C84.5268 20.544 83.1889 20.7826 81.6858 21.2246L82.2502 23.1434ZM85.68 22.544C86.768 22.544 87.4706 22.7509 87.9032 23.0439C88.2988 23.3119 88.5641 23.7154 88.6581 24.3734L90.638 24.0906C90.476 22.9566 89.9519 22.0161 89.0248 21.3881C88.1347 20.7851 86.9814 20.544 85.68 20.544V22.544ZM135.261 54.952L134.639 54.1692L134.631 54.1753L134.623 54.1816L135.261 54.952ZM143.325 47.912L142.632 47.1906L142.625 47.1977L142.618 47.2049L143.325 47.912ZM148.189 41.768L149.068 42.2443L149.677 41.1207L148.44 40.8L148.189 41.768ZM127.709 35.88L127.998 34.9227L126.742 34.5434L126.709 35.8554L127.709 35.88ZM127.069 61.864L126.069 61.8394L126.015 64.044L127.709 62.6322L127.069 61.864ZM131.549 58.024L130.911 57.2536L130.875 57.2836L130.842 57.3169L131.549 58.024ZM155.869 72.872L154.975 72.4248L154.961 72.4524L154.949 72.4809L155.869 72.872ZM160.221 69.416L160.611 70.337L160.625 70.3307L160.64 70.324L160.221 69.416ZM170.461 72.36L171.381 72.7528L171.389 72.7321L171.397 72.7111L170.461 72.36ZM162.525 96.168L163.495 96.4105L163.497 96.4029L163.499 96.3952L162.525 96.168ZM158.813 100.904L158.235 100.088L158.112 100.175L158.02 100.294L158.813 100.904ZM154.845 103.72L154.451 102.801L154.443 102.804L154.435 102.808L154.845 103.72ZM146.141 103.976L145.568 104.795L145.586 104.808L145.604 104.82L146.141 103.976ZM144.733 101.16L143.735 101.221L143.735 101.227L144.733 101.16ZM139.229 85.928L138.411 86.5035L138.418 86.5135L139.229 85.928ZM126.685 76.968L126.943 76.0018L125.729 75.6781L125.686 76.9335L126.685 76.968ZM126.045 95.528L127.044 95.5806L127.044 95.5715L127.044 95.5625L126.045 95.528ZM121.949 100.008L121.49 99.1193L121.478 99.1256L121.949 100.008ZM111.453 101.416L110.898 102.248L110.932 102.271L110.967 102.29L111.453 101.416ZM110.301 99.112L109.301 99.0903L109.301 99.1011V99.112H110.301ZM110.685 81.448L111.685 81.4697L111.696 80.932L111.254 80.6258L110.685 81.448ZM110.941 75.304L111.596 76.0597L111.929 75.7714L111.941 75.3315L110.941 75.304ZM112.477 28.84L111.478 28.7924L111.478 28.8014L112.477 28.84ZM116.061 24.232L116.547 25.1062L116.557 25.1002L116.061 24.232ZM127.069 23.464L126.326 24.133L126.521 24.3505L126.804 24.4281L127.069 23.464ZM155.997 31.912L155.703 32.8678L155.956 32.9456L156.214 32.8882L155.997 31.912ZM162.525 32.424L161.861 33.1714L161.904 33.21L161.952 33.2432L162.525 32.424ZM160.349 44.968L161.132 45.5899L161.141 45.5788L160.349 44.968ZM150.749 54.696L150.09 53.9433L150.08 53.9527L150.749 54.696ZM148.189 57L147.52 56.2567L147.504 56.2708L147.489 56.2855L148.189 57ZM136.285 67.624L135.66 66.8431L134.139 68.0605L136.015 68.5868L136.285 67.624ZM153.181 79.272L152.375 79.8644L153.441 81.314L154.109 79.6434L153.181 79.272ZM135.883 55.7348C139.229 53.0757 141.948 50.7032 144.032 48.6191L142.618 47.2049C140.606 49.2168 137.949 51.5376 134.639 54.1692L135.883 55.7348ZM144.018 48.6334C146.206 46.5322 147.899 44.4038 149.068 42.2443L147.31 41.2917C146.261 43.2282 144.71 45.1958 142.632 47.1906L144.018 48.6334ZM148.44 40.8C143.852 39.6105 137.04 37.6525 127.998 34.9227L127.42 36.8373C136.468 39.5689 143.31 41.5362 147.938 42.736L148.44 40.8ZM126.709 35.8554L126.069 61.8394L128.069 61.8886L128.709 35.9046L126.709 35.8554ZM127.709 62.6322C130.249 60.5157 131.789 59.1985 132.256 58.7311L130.842 57.3169C130.456 57.7028 129.009 58.9456 126.429 61.0958L127.709 62.6322ZM132.187 58.7944L135.899 55.7224L134.623 54.1816L130.911 57.2536L132.187 58.7944ZM156.763 73.3192C157.293 72.2599 158.491 71.2336 160.611 70.337L159.831 68.495C157.513 69.4757 155.81 70.7534 154.975 72.4248L156.763 73.3192ZM160.64 70.324C162.752 69.349 164.743 68.88 166.621 68.88V66.88C164.403 66.88 162.127 67.435 159.802 68.508L160.64 70.324ZM166.621 68.88C167.955 68.88 168.784 69.0981 169.252 69.3957C169.643 69.6444 169.845 69.9837 169.845 70.568H171.845C171.845 69.3603 171.343 68.3555 170.326 67.7083C169.386 67.1099 168.103 66.88 166.621 66.88V68.88ZM169.845 70.568C169.845 70.9209 169.755 71.3947 169.525 72.0089L171.397 72.7111C171.679 71.9599 171.845 71.2391 171.845 70.568H169.845ZM169.541 71.9672C166.023 80.206 163.358 88.1974 161.551 95.9408L163.499 96.3952C165.276 88.7786 167.902 80.898 171.381 72.7528L169.541 71.9672ZM161.555 95.9255C161.207 97.3185 160.17 98.7174 158.235 100.088L159.391 101.72C161.552 100.189 162.99 98.4309 163.495 96.4105L161.555 95.9255ZM158.02 100.294C157.304 101.225 156.145 102.075 154.451 102.801L155.239 104.639C157.129 103.829 158.615 102.801 159.606 101.514L158.02 100.294ZM154.435 102.808C152.844 103.524 151.277 103.872 149.725 103.872V105.872C151.586 105.872 153.432 105.452 155.255 104.632L154.435 102.808ZM149.725 103.872C148.408 103.872 147.414 103.601 146.678 103.132L145.604 104.82C146.745 105.546 148.141 105.872 149.725 105.872V103.872ZM146.714 103.157C146.166 102.773 145.801 102.148 145.731 101.093L143.735 101.227C143.836 102.732 144.409 103.984 145.568 104.795L146.714 103.157ZM145.731 101.099C145.378 95.3585 143.476 90.1002 140.04 85.3425L138.418 86.5135C141.638 90.9718 143.405 95.8682 143.735 101.221L145.731 101.099ZM140.047 85.3525C136.678 80.5657 132.305 77.4316 126.943 76.0018L126.427 77.9342C131.306 79.2351 135.294 82.0743 138.411 86.5035L140.047 85.3525ZM125.686 76.9335L125.046 95.4935L127.044 95.5625L127.684 77.0025L125.686 76.9335ZM125.046 95.4754C124.991 96.5238 124.08 97.7825 121.49 99.1194L122.408 100.897C125.108 99.5028 126.928 97.7749 127.044 95.5806L125.046 95.4754ZM121.478 99.1256C119.032 100.43 116.719 101.056 114.525 101.056V103.056C117.11 103.056 119.746 102.317 122.42 100.89L121.478 99.1256ZM114.525 101.056C113.342 101.056 112.506 100.857 111.939 100.542L110.967 102.29C111.936 102.829 113.148 103.056 114.525 103.056V101.056ZM112.008 100.584C111.552 100.28 111.301 99.8447 111.301 99.112H109.301C109.301 100.427 109.818 101.528 110.898 102.248L112.008 100.584ZM111.301 99.1337L111.685 81.4697L109.685 81.4263L109.301 99.0903L111.301 99.1337ZM111.254 80.6258C110.32 79.979 110.021 79.3554 110.021 78.76H108.021C108.021 80.2126 108.831 81.381 110.116 82.2702L111.254 80.6258ZM110.021 78.76C110.021 77.9607 110.44 77.0611 111.596 76.0597L110.286 74.5483C108.882 75.7656 108.021 77.17 108.021 78.76H110.021ZM111.941 75.3315C112.367 59.8045 112.879 44.3202 113.476 28.8786L111.478 28.8014C110.88 44.2504 110.368 59.7422 109.941 75.2765L111.941 75.3315ZM113.476 28.8876C113.538 27.5865 114.392 26.3034 116.547 25.1062L115.575 23.3578C113.122 24.7206 111.587 26.5095 111.478 28.7924L113.476 28.8876ZM116.557 25.1002C118.819 23.808 121.039 23.184 123.229 23.184V21.184C120.641 21.184 118.082 21.9253 115.565 23.3638L116.557 25.1002ZM123.229 23.184C124.895 23.184 125.832 23.5842 126.326 24.133L127.812 22.795C126.77 21.6372 125.147 21.184 123.229 21.184V23.184ZM126.804 24.4281C136.095 26.9853 145.728 29.7985 155.703 32.8678L156.291 30.9562C146.298 27.8815 136.646 25.0627 127.334 22.4998L126.804 24.4281ZM156.214 32.8882C157.758 32.5451 158.724 32.4 159.197 32.4V30.4C158.475 30.4 157.308 30.5962 155.78 30.9358L156.214 32.8882ZM159.197 32.4C160.503 32.4 161.339 32.7076 161.861 33.1714L163.189 31.6766C162.175 30.7751 160.792 30.4 159.197 30.4V32.4ZM161.952 33.2432C162.475 33.6098 162.805 34.202 162.805 35.24H164.805C164.805 33.718 164.281 32.4329 163.098 31.6048L161.952 33.2432ZM162.805 35.24C162.805 38.4999 161.737 41.531 159.557 44.3572L161.141 45.5788C163.569 42.4317 164.805 38.9774 164.805 35.24H162.805ZM159.566 44.3461C157.312 47.1839 154.16 50.3825 150.09 53.9434L151.408 55.4486C155.53 51.8415 158.778 48.5548 161.132 45.5899L159.566 44.3461ZM150.08 53.9527L147.52 56.2567L148.858 57.7433L151.418 55.4393L150.08 53.9527ZM147.489 56.2855C143.413 60.2765 139.47 63.7951 135.66 66.8431L136.91 68.4049C140.78 65.3089 144.773 61.7448 148.889 57.7145L147.489 56.2855ZM136.015 68.5868C142.8 70.4898 148.242 74.2433 152.375 79.8644L153.987 78.6796C149.587 72.6954 143.765 68.6835 136.555 66.6612L136.015 68.5868ZM154.109 79.6434C154.446 78.8022 155.337 76.6802 156.789 73.2631L154.949 72.4809C153.5 75.8905 152.599 78.0351 152.253 78.9006L154.109 79.6434ZM211.844 31.656L212.843 31.7068L212.843 31.7059L211.844 31.656ZM215.428 27.176L215.914 28.0502L215.924 28.0442L215.428 27.176ZM225.924 26.024L225.351 26.8432L225.379 26.8634L225.41 26.8815L225.924 26.024ZM227.076 28.584L226.079 28.5128L226.078 28.5221L226.077 28.5314L227.076 28.584ZM226.82 36.392L227.819 36.4304L227.82 36.4112V36.392H226.82ZM224.516 64.68L223.526 64.5386L223.525 64.5493L224.516 64.68ZM217.476 86.568L216.595 86.0946L216.595 86.0946L217.476 86.568ZM201.092 100.008L201.358 100.972L201.366 100.97L201.374 100.967L201.092 100.008ZM179.588 96.168L178.967 96.9521L178.975 96.9582L179.588 96.168ZM172.548 82.984L171.551 83.0607L171.552 83.0759L171.554 83.0911L172.548 82.984ZM174.98 59.944L174.02 59.664L174.02 59.664L174.98 59.944ZM182.788 37.672L181.874 37.2659L181.865 37.2862L181.857 37.3069L182.788 37.672ZM186.244 28.84L187.186 29.1763L187.187 29.1728L186.244 28.84ZM190.084 25.256L190.501 26.1651L190.509 26.1614L190.517 26.1575L190.084 25.256ZM199.684 24.616L199.111 25.4352L199.139 25.4554L199.17 25.4735L199.684 24.616ZM200.708 28.456L201.653 28.782L201.668 28.7408L201.678 28.6985L200.708 28.456ZM196.74 39.592L195.805 39.2373L195.802 39.2461L195.799 39.2549L196.74 39.592ZM190.98 57L191.939 57.2841L191.94 57.2793L190.98 57ZM188.164 71.208L187.169 71.1033L187.168 71.1141L187.167 71.125L188.164 71.208ZM191.62 86.952L192.327 86.2449L192.308 86.2256L192.288 86.2074L191.62 86.952ZM194.692 89.128L194.221 90.0104L194.245 90.0229L194.269 90.0342L194.692 89.128ZM198.276 90.152L198.519 89.1819L198.437 89.1614L198.353 89.1549L198.276 90.152ZM199.3 90.408L199.057 91.3781L199.177 91.408H199.3V90.408ZM199.812 90.024L199.273 89.1817L199.182 89.2402L199.105 89.3169L199.812 90.024ZM204.932 83.112L204.007 82.7324L204.002 82.7448L204.932 83.112ZM207.62 74.28L206.634 74.1156L207.62 74.28ZM209.412 62.12L210.403 62.2572L210.403 62.2509L209.412 62.12ZM210.82 47.272L209.823 47.1929L209.823 47.2008L209.822 47.2086L210.82 47.272ZM212.843 31.7059C212.903 30.5043 213.738 29.2588 215.914 28.0502L214.942 26.3018C212.51 27.6532 210.956 29.3943 210.845 31.6061L212.843 31.7059ZM215.924 28.0442C218.186 26.752 220.406 26.128 222.596 26.128V24.128C220.008 24.128 217.449 24.8693 214.932 26.3078L215.924 28.0442ZM222.596 26.128C223.819 26.128 224.711 26.3952 225.351 26.8432L226.497 25.2048C225.431 24.4581 224.103 24.128 222.596 24.128V26.128ZM225.41 26.8815C225.673 27.0395 225.837 27.2299 225.94 27.4584C226.048 27.6976 226.113 28.0355 226.079 28.5128L228.073 28.6552C228.125 27.9378 228.04 27.2517 227.764 26.6376C227.483 26.0128 227.028 25.5205 226.439 25.1665L225.41 26.8815ZM226.077 28.5314C225.906 31.7819 225.82 34.4042 225.82 36.392H227.82C227.82 34.4544 227.904 31.8714 228.075 28.6366L226.077 28.5314ZM225.821 36.3536C225.395 47.4253 224.629 56.8181 223.526 64.5386L225.506 64.8214C226.622 57.0112 227.392 47.5453 227.819 36.4304L225.821 36.3536ZM223.525 64.5493C222.516 72.1959 220.207 79.3756 216.595 86.0946L218.357 87.0414C222.084 80.107 224.468 72.6948 225.507 64.8107L223.525 64.5493ZM216.595 86.0946C213.049 92.6924 207.8 96.9928 200.81 99.0486L201.374 100.967C208.891 98.7565 214.564 94.097 218.357 87.0414L216.595 86.0946ZM200.826 99.044C198.425 99.7064 196.168 100.032 194.052 100.032V102.032C196.373 102.032 198.81 101.675 201.358 100.972L200.826 99.044ZM194.052 100.032C188.805 100.032 184.201 98.4798 180.201 95.3778L178.975 96.9582C183.338 100.342 188.376 102.032 194.052 102.032V100.032ZM180.209 95.384C176.338 92.3199 174.113 88.1771 173.542 82.8769L171.554 83.0911C172.178 88.8843 174.646 93.5308 178.967 96.952L180.209 95.384ZM173.545 82.9073C173.375 80.6942 173.292 79.0615 173.292 77.992H171.292C171.292 79.1412 171.38 80.8365 171.551 83.0607L173.545 82.9073ZM173.292 77.992C173.292 72.2066 174.172 66.2849 175.94 60.224L174.02 59.664C172.204 65.8911 171.292 72.0014 171.292 77.992H173.292ZM175.94 60.224C177.721 54.1186 180.312 46.7246 183.719 38.0371L181.857 37.3069C178.437 46.0274 175.823 53.4814 174.02 59.664L175.94 60.224ZM183.702 38.0781C184.74 35.7429 185.901 32.7734 187.186 29.1763L185.302 28.5037C184.027 32.0746 182.884 34.9931 181.874 37.2659L183.702 38.0781ZM187.187 29.1728C187.574 28.0761 188.584 27.0434 190.501 26.1651L189.667 24.3469C187.488 25.3459 185.938 26.7026 185.301 28.5072L187.187 29.1728ZM190.517 26.1575C192.536 25.1883 194.479 24.72 196.356 24.72V22.72C194.137 22.72 191.899 23.2757 189.651 24.3545L190.517 26.1575ZM196.356 24.72C197.579 24.72 198.471 24.9872 199.111 25.4352L200.257 23.7968C199.191 23.0501 197.863 22.72 196.356 22.72V24.72ZM199.17 25.4735C199.711 25.7984 199.964 26.2348 199.964 26.92H201.964C201.964 25.5572 201.364 24.4576 200.198 23.7585L199.17 25.4735ZM199.964 26.92C199.964 27.1322 199.905 27.5449 199.738 28.2135L201.678 28.6985C201.852 28.0018 201.964 27.3905 201.964 26.92H199.964ZM199.763 28.13C198.057 33.0771 196.738 36.7774 195.805 39.2373L197.675 39.9466C198.619 37.4573 199.946 33.7336 201.653 28.782L199.763 28.13ZM195.799 39.2549C193.32 46.1776 191.393 52.0009 190.02 56.7207L191.94 57.2793C193.298 52.6124 195.211 46.8304 197.681 39.9291L195.799 39.2549ZM190.021 56.7159C188.638 61.3835 187.688 66.1796 187.169 71.1033L189.159 71.3127C189.664 66.5084 190.591 61.8325 191.939 57.2841L190.021 56.7159ZM187.167 71.125C186.996 73.184 186.908 74.8369 186.908 76.072H188.908C188.908 74.9178 188.991 73.328 189.161 71.291L187.167 71.125ZM186.908 76.072C186.908 81.2443 188.177 85.2086 190.952 87.6966L192.288 86.2074C190.113 84.2581 188.908 80.969 188.908 76.072H186.908ZM190.913 87.6591C191.77 88.5158 192.882 89.2958 194.221 90.0104L195.163 88.2456C193.942 87.5949 193.006 86.9242 192.327 86.2449L190.913 87.6591ZM194.269 90.0342C195.63 90.6693 196.943 91.0524 198.199 91.1491L198.353 89.1549C197.391 89.0809 196.314 88.7814 195.115 88.2218L194.269 90.0342ZM198.033 91.1221L199.057 91.3781L199.543 89.4379L198.519 89.1819L198.033 91.1221ZM199.3 91.408C199.548 91.408 199.739 91.3227 199.827 91.2784C199.932 91.226 200.022 91.1643 200.092 91.112C200.232 91.0068 200.377 90.873 200.519 90.7311L199.105 89.3169C199.05 89.3715 199.005 89.415 198.967 89.4487C198.929 89.4831 198.904 89.5027 198.892 89.512C198.876 89.5237 198.892 89.51 198.933 89.4896C198.954 89.4787 198.994 89.4606 199.049 89.4442C199.102 89.4282 199.189 89.408 199.3 89.408V91.408ZM200.351 90.8663C202.717 89.352 204.533 86.8454 205.862 83.4792L204.002 82.7448C202.771 85.8639 201.174 87.9653 199.273 89.1817L200.351 90.8663ZM205.857 83.4916C207.241 80.1188 208.164 77.1003 208.606 74.4444L206.634 74.1156C206.223 76.5797 205.354 79.4492 204.007 82.7324L205.857 83.4916ZM208.606 74.4444C209.035 71.8699 209.634 67.805 210.403 62.2572L208.421 61.9828C207.654 67.5283 207.058 71.5701 206.634 74.1156L208.606 74.4444ZM210.403 62.2509C211.004 57.7023 211.475 52.73 211.818 47.3354L209.822 47.2086C209.482 52.5659 209.015 57.4924 208.421 61.9891L210.403 62.2509ZM211.817 47.3511C212.244 41.9663 212.586 36.7515 212.843 31.7068L210.845 31.6052C210.59 36.6298 210.249 41.8257 209.823 47.1929L211.817 47.3511ZM279.703 27.432L278.715 27.2799L278.713 27.2906L278.712 27.3013L279.703 27.432ZM277.399 91.56L276.402 91.6348L276.411 91.7585L276.45 91.8762L277.399 91.56ZM277.399 93.992L276.45 93.6758L276.399 93.8297V93.992H277.399ZM277.271 94.12V93.12H276.271V94.12H277.271ZM277.271 94.376L278.214 94.7088L278.271 94.5473V94.376H277.271ZM273.687 98.216L274.166 99.0939L274.181 99.0857L274.196 99.0769L273.687 98.216ZM267.671 100.008L267.591 99.0112L267.581 99.012L267.571 99.013L267.671 100.008ZM261.527 97.32L262.479 97.0152L262.472 96.993L262.464 96.9711L261.527 97.32ZM247.319 64.04L246.4 64.4339L246.405 64.4452L246.41 64.4563L247.319 64.04ZM245.783 60.456L246.702 60.0621L244.785 60.3921L245.783 60.456ZM244.503 94.632L243.503 94.6179V94.632H244.503ZM240.919 99.496L241.415 100.364L241.427 100.358L241.438 100.351L240.919 99.496ZM229.911 100.648L230.448 99.8043L230.448 99.8043L229.911 100.648ZM228.631 97.704L229.629 97.7664L229.63 97.7462L229.631 97.7261L228.631 97.704ZM233.623 31.784L232.653 31.5415L232.64 31.5949L232.632 31.6494L233.623 31.784ZM233.751 31.272L234.721 31.5145L234.762 31.3502L234.747 31.1815L233.751 31.272ZM237.207 26.152L236.68 25.3024L236.68 25.3024L237.207 26.152ZM249.367 26.408L248.423 26.7383L248.426 26.7458L248.428 26.7532L249.367 26.408ZM261.527 55.08L260.618 55.4978L262.525 55.1437L261.527 55.08ZM264.215 30.632L265.203 30.7848L265.204 30.7803L264.215 30.632ZM268.311 26.152L268.77 27.0402L268.782 27.034L268.794 27.0276L268.311 26.152ZM278.712 27.3013C276.659 42.8694 275.631 57.5481 275.631 71.336H277.631C277.631 57.6466 278.651 43.0559 280.694 27.5627L278.712 27.3013ZM275.631 71.336C275.631 78.0177 275.888 84.7839 276.402 91.6348L278.396 91.4852C277.886 84.6827 277.631 77.9663 277.631 71.336H275.631ZM276.45 91.8762C276.604 92.3383 276.655 92.6499 276.655 92.84H278.655C278.655 92.3474 278.535 91.8057 278.348 91.2438L276.45 91.8762ZM276.655 92.84C276.655 92.9244 276.616 93.1785 276.45 93.6758L278.348 94.3082C278.523 93.7815 278.655 93.2676 278.655 92.84H276.655ZM276.399 93.992C276.399 93.8805 276.428 93.6132 276.66 93.3809C276.892 93.1485 277.16 93.12 277.271 93.12V95.12C277.468 95.12 277.799 95.0701 278.074 94.7951C278.349 94.5201 278.399 94.1888 278.399 93.992H276.399ZM276.271 94.12V94.376H278.271V94.12H276.271ZM276.328 94.0432C275.921 95.1956 274.936 96.3161 273.178 97.3551L274.196 99.0769C276.192 97.8972 277.597 96.4577 278.214 94.7088L276.328 94.0432ZM273.208 97.3381C271.454 98.2948 269.585 98.8517 267.591 99.0112L267.751 101.005C270.024 100.823 272.165 100.185 274.166 99.0939L273.208 97.3381ZM267.571 99.013C265.952 99.1749 264.78 99.0278 263.976 98.6758C263.216 98.3432 262.733 97.809 262.479 97.0152L260.575 97.6248C261.003 98.9644 261.886 99.9448 263.174 100.508C264.418 101.052 265.977 101.182 267.771 101.003L267.571 99.013ZM262.464 96.9711C259.465 88.9156 254.717 77.7964 248.228 63.6237L246.41 64.4563C252.892 78.6142 257.616 89.6817 260.59 97.6689L262.464 96.9711ZM248.238 63.6461L246.702 60.0621L244.864 60.8499L246.4 64.4339L248.238 63.6461ZM244.785 60.3921C244.101 71.0774 243.674 82.4861 243.503 94.6179L245.503 94.6461C245.673 82.5432 246.099 71.1679 246.781 60.5199L244.785 60.3921ZM243.503 94.632C243.503 95.9081 242.668 97.2643 240.4 98.6412L241.438 100.351C243.949 98.8263 245.503 96.9399 245.503 94.632H243.503ZM240.423 98.6278C238.167 99.9166 235.905 100.544 233.623 100.544V102.544C236.291 102.544 238.892 101.806 241.415 100.364L240.423 98.6278ZM233.623 100.544C232.207 100.544 231.176 100.268 230.448 99.8043L229.374 101.492C230.523 102.223 231.967 102.544 233.623 102.544V100.544ZM230.448 99.8043C229.892 99.4503 229.56 98.8668 229.629 97.7664L227.633 97.6416C227.531 99.2719 228.053 100.651 229.374 101.492L230.448 99.8043ZM229.631 97.7261C230.142 74.549 231.803 52.6135 234.614 31.9186L232.632 31.6494C229.811 52.4265 228.144 74.4377 227.631 97.6819L229.631 97.7261ZM234.593 32.0265L234.721 31.5145L232.781 31.0295L232.653 31.5415L234.593 32.0265ZM234.747 31.1815C234.627 29.8636 235.388 28.4579 237.734 27.0016L236.68 25.3024C234.077 26.918 232.534 28.9257 232.755 31.3625L234.747 31.1815ZM237.734 27.0016C240.079 25.5463 242.374 24.848 244.631 24.848V22.848C241.939 22.848 239.284 23.6857 236.68 25.3024L237.734 27.0016ZM244.631 24.848C245.811 24.848 246.665 25.0465 247.259 25.3677C247.828 25.675 248.206 26.1181 248.423 26.7383L250.311 26.0776C249.931 24.9912 249.221 24.1544 248.211 23.6083C247.226 23.0762 246.011 22.848 244.631 22.848V24.848ZM248.428 26.7532C251.172 34.2121 255.237 43.7961 260.618 55.4978L262.436 54.6622C257.065 42.9826 253.023 33.4519 250.306 26.0628L248.428 26.7532ZM262.525 55.1437C263.035 47.1534 263.928 39.0338 265.203 30.7848L263.227 30.4792C261.942 38.7848 261.043 46.9639 260.529 55.0163L262.525 55.1437ZM265.204 30.7803C265.389 29.5468 266.404 28.2644 268.77 27.0402L267.852 25.2638C265.269 26.5996 263.553 28.3039 263.226 30.4837L265.204 30.7803ZM268.794 27.0276C271.148 25.7289 273.415 25.104 275.607 25.104V23.104C273.02 23.104 270.423 23.8444 267.828 25.2764L268.794 27.0276ZM275.607 25.104C277.068 25.104 277.891 25.3763 278.304 25.7121C278.634 25.9797 278.848 26.4098 278.715 27.2799L280.691 27.5841C280.899 26.2355 280.602 25.0016 279.566 24.1599C278.614 23.3863 277.218 23.104 275.607 23.104V25.104Z" fill="black" mask="url(#path-1-outside-1_1_4)"/>
</g>
<defs>
<filter id="filter0_d_1_4" x="0.863998" y="0.808014" width="283.351" height="112.064" filterUnits="userSpaceOnUse" color-interpolation-filters="sRGB">
<feFlood flood-opacity="0" result="BackgroundImageFix"/>
<feColorMatrix in="SourceAlpha" type="matrix" values="0 0 0 0 0 0 0 0 0 0 0 0 0 0 0 0 0 0 127 0" result="hardAlpha"/>
<feOffset dy="4"/>
<feGaussianBlur stdDeviation="2"/>
<feComposite in2="hardAlpha" operator="out"/>
<feColorMatrix type="matrix" values="0 0 0 0 0 0 0 0 0 0 0 0 0 0 0 0 0 0 0.25 0"/>
<feBlend mode="normal" in2="BackgroundImageFix" result="effect1_dropShadow_1_4"/>
<feBlend mode="normal" in="SourceGraphic" in2="effect1_dropShadow_1_4" result="shape"/>
</filter>
</defs>
</svg>
